<svg width="21" height="20" viewBox="0 0 21 20" fill="none" xmlns="http://www.w3.org/2000/svg">
<g opacity="0.5">
<path fill-rule="evenodd" clip-rule="evenodd" d="M9.16282 0.00304998C9.37533 0.00271742 9.60394 0.00282 9.85064 0.0029307L10.2573 0.00304998C13.5146 0.00304998 13.9007 0.0147416 15.187 0.0731996C16.3765 0.127591 17.0221 0.326348 17.4522 0.493335C18.0215 0.714458 18.4274 0.97879 18.8541 1.40579C19.2811 1.83278 19.5455 2.23945 19.7671 2.80878C19.9341 3.23832 20.1331 3.8839 20.1872 5.07339C20.2457 6.35947 20.2584 6.7458 20.2584 10.0017C20.2584 13.2575 20.2457 13.6438 20.1872 14.9299C20.1328 16.1194 19.9341 16.765 19.7671 17.1945C19.546 17.7639 19.2811 18.1692 18.8541 18.596C18.4271 19.023 18.0217 19.2873 17.4522 19.5084C17.0226 19.6762 16.3765 19.8744 15.187 19.9288C13.901 19.9873 13.5146 20 10.2573 20C6.99962 20 6.61354 19.9873 5.32747 19.9288C4.13798 19.8739 3.4924 19.6752 3.0621 19.5082C2.49277 19.2871 2.0861 19.0227 1.6591 18.5957C1.23211 18.1687 0.967776 17.7631 0.746144 17.1935C0.579157 16.764 0.380146 16.1184 0.326009 14.9289C0.267551 13.6428 0.255859 13.2565 0.255859 9.9986C0.255859 6.74071 0.267551 6.35642 0.326009 5.07034C0.3804 3.88085 0.579157 3.23527 0.746144 2.80522C0.967267 2.23589 1.23211 1.82923 1.6591 1.40223C2.0861 0.975232 2.49277 0.7109 3.0621 0.489268C3.49214 0.321519 4.13798 0.12327 5.32747 0.0686246C6.45291 0.0177916 6.88906 0.00254165 9.16282 0V0.00304998ZM16.7697 2.02883C15.9614 2.02883 15.3057 2.68381 15.3057 3.49231C15.3057 4.30056 15.9614 4.9563 16.7697 4.9563C17.5779 4.9563 18.2336 4.30056 18.2336 3.49231C18.2336 2.68407 17.5779 2.02832 16.7697 2.02832V2.02883ZM3.99219 10.0042C3.99219 6.54438 6.79727 3.73921 10.2571 3.73907C13.7171 3.73907 16.5215 6.54429 16.5215 10.0042C16.5215 13.4642 13.7173 16.2681 10.2574 16.2681C6.79741 16.2681 3.99219 13.4642 3.99219 10.0042Z" fill="white"/>
<path fill-rule="evenodd" clip-rule="evenodd" d="M10.2571 5.93799C12.5029 5.93799 14.3237 7.75857 14.3237 10.0046C14.3237 12.2504 12.5029 14.0713 10.2571 14.0713C8.01101 14.0713 6.19043 12.2504 6.19043 10.0046C6.19043 7.75857 8.01101 5.93799 10.2571 5.93799V5.93799Z" fill="white"/>
</g>
</svg>
