<svg width="28" height="15" viewBox="0 0 28 15" fill="none" xmlns="http://www.w3.org/2000/svg">
<path opacity="0.5" fill-rule="evenodd" clip-rule="evenodd" d="M15.2042 14.9373C15.2042 14.9373 15.704 14.8846 15.96 14.6235C16.1943 14.3843 16.1862 13.933 16.1862 13.933C16.1862 13.933 16.155 11.8252 17.1858 11.514C18.2016 11.208 19.5059 13.5523 20.8901 14.4538C21.9358 15.1353 22.7294 14.9862 22.7294 14.9862L26.4284 14.9373C26.4284 14.9373 28.3625 14.8241 27.4456 13.38C27.3697 13.2617 26.9106 12.3113 24.6961 10.3592C22.3759 8.31579 22.6875 8.64629 25.4803 5.11113C27.1815 2.9584 27.8614 1.64413 27.6487 1.08215C27.4469 0.544615 26.1954 0.687359 26.1954 0.687359L22.0319 0.711793C22.0319 0.711793 21.7231 0.671927 21.4942 0.801811C21.2707 0.929123 21.1258 1.22618 21.1258 1.22618C21.1258 1.22618 20.4675 2.89153 19.5885 4.30868C17.7343 7.2973 16.9934 7.45547 16.69 7.27029C15.9844 6.83692 16.1605 5.53165 16.1605 4.60445C16.1605 1.70714 16.6237 0.499606 15.2598 0.187113C14.8074 0.0829483 14.4742 0.0147914 13.3161 0.00321757C11.8303 -0.0109282 10.5734 0.00836147 9.86099 0.338858C9.38694 0.558761 9.02125 1.05001 9.24473 1.0783C9.51968 1.11302 10.1427 1.23776 10.4732 1.6647C10.8998 2.21639 10.8849 3.4535 10.8849 3.4535C10.8849 3.4535 11.1301 6.86392 10.312 7.28701C9.75128 7.57764 8.98197 6.9848 7.32821 4.27267C6.48169 2.88381 5.84239 1.34835 5.84239 1.34835C5.84239 1.34835 5.71914 1.06158 5.49837 0.907262C5.23154 0.720794 4.85908 0.662925 4.85908 0.662925L0.902781 0.687359C0.902781 0.687359 0.308185 0.702791 0.0901217 0.948413C-0.103562 1.16574 0.0752229 1.61712 0.0752229 1.61712C0.0752229 1.61712 3.17281 8.4984 6.68079 11.9667C9.89756 15.1456 13.5491 14.9373 13.5491 14.9373H15.2042Z" fill="white"/>
</svg>
