<svg width="72" height="50" viewBox="0 0 72 50" fill="none" xmlns="http://www.w3.org/2000/svg">
<path d="M11.7528 49.9996C11.1379 49.9996 10.5153 49.9515 9.88942 49.851C3.49427 48.8145 -0.874749 42.7754 0.148693 36.3901L4.39865 9.88216C5.31833 4.15765 10.1898 0.00381193 15.9831 0.00381193C16.6013 0.00381193 17.2315 0.0540557 17.8563 0.151266C22.0997 0.828464 25.6441 3.81578 27.0662 7.84729C29.5358 8.45567 31.3173 10.6642 31.3173 13.2572H39.1465C39.1465 10.2644 41.5091 7.81343 44.4669 7.67143C45.9283 3.72949 49.4301 0.818634 53.6113 0.152359C56.7056 -0.347894 59.8131 0.393747 62.3558 2.22983C64.9008 4.06809 66.5752 6.78562 67.0711 9.88216L71.3211 36.3901C71.4194 37.0181 71.4696 37.6484 71.4696 38.2666C71.4696 44.0479 67.3169 48.9193 61.5945 49.851C55.1961 50.8756 49.1549 46.5065 48.1303 40.1103L47.6836 37.3371C47.5853 36.7265 48.0003 36.1531 48.6098 36.0548C49.2193 35.9543 49.7938 36.3715 49.8921 36.981L50.3389 39.7553C51.169 44.9359 56.0645 48.4715 61.2385 47.6425C65.8696 46.8888 69.2327 42.9458 69.2327 38.2666C69.2327 37.7641 69.1923 37.2508 69.1114 36.7407L64.8626 10.236C64.4606 7.73042 63.1062 5.53062 61.0462 4.04297C58.9884 2.55641 56.4719 1.95567 53.9641 2.3609C50.3421 2.9387 47.3505 5.59724 46.3401 9.13506C46.1949 9.64186 45.6902 9.95971 45.1922 9.94442C45.1081 9.93896 45.0218 9.92912 44.9344 9.91929C44.8699 9.91165 44.8044 9.90182 44.7389 9.90182C42.8886 9.90182 41.3835 11.4069 41.3835 13.2572C41.3835 13.4975 41.4239 13.775 41.5058 14.1037C41.5899 14.438 41.5145 14.7918 41.3026 15.0638C41.0907 15.3358 40.7653 15.4942 40.4212 15.4942H30.0415C29.6974 15.4942 29.372 15.3358 29.1601 15.0638C28.9482 14.7918 28.8728 14.438 28.9569 14.1037C29.0399 13.7717 29.0803 13.4953 29.0803 13.2572C29.0803 11.5544 27.7915 10.1279 26.0832 9.94005C25.631 9.8898 25.2552 9.57196 25.1296 9.13506C24.1182 5.59724 21.1265 2.9387 17.5068 2.3609C16.9989 2.28116 16.4855 2.24075 15.9831 2.24075C11.2941 2.24075 7.35102 5.6038 6.60719 10.236L2.35723 36.744C1.5293 41.9136 5.06711 46.8036 10.2455 47.6425C15.4184 48.4693 20.3019 44.9337 21.1309 39.7564L21.5667 37.0596C21.6639 36.4502 22.2395 36.0318 22.849 36.1334C23.4596 36.2317 23.8735 36.8062 23.7752 37.4157L23.3394 40.1114C22.4154 45.8796 17.415 49.9996 11.7528 49.9996Z" fill="white"/>
<path d="M41.9772 32.2711H29.0482C28.4299 32.2711 27.9297 31.7709 27.9297 31.1526C27.9297 30.5344 28.4299 30.0342 29.0482 30.0342H41.9772C42.5954 30.0342 43.0956 30.5344 43.0956 31.1526C43.0956 31.7709 42.5954 32.2711 41.9772 32.2711Z" fill="white"/>
<path d="M47.535 38.4194C43.8345 38.4194 40.8242 35.4092 40.8242 31.7086C40.8242 28.0081 43.8345 24.9978 47.535 24.9978C51.2356 24.9978 54.2458 28.0081 54.2458 31.7086C54.2458 35.4092 51.2356 38.4194 47.535 38.4194ZM47.535 27.2347C45.0676 27.2347 43.0612 29.2412 43.0612 31.7086C43.0612 34.176 45.0676 36.1825 47.535 36.1825C50.0024 36.1825 52.0089 34.176 52.0089 31.7086C52.0089 29.2412 50.0024 27.2347 47.535 27.2347Z" fill="white"/>
<path d="M23.4882 38.4194C19.7876 38.4194 16.7773 35.4092 16.7773 31.7086C16.7773 28.0081 19.7876 24.9978 23.4882 24.9978C27.1887 24.9978 30.199 28.0081 30.199 31.7086C30.199 35.4092 27.1887 38.4194 23.4882 38.4194ZM23.4882 27.2347C21.0208 27.2347 19.0143 29.2412 19.0143 31.7086C19.0143 34.176 21.0208 36.1825 23.4882 36.1825C25.9556 36.1825 27.962 34.176 27.962 31.7086C27.962 29.2412 25.9556 27.2347 23.4882 27.2347Z" fill="white"/>
<path d="M54.806 22.2015C54.1878 22.2015 53.6875 21.7013 53.6875 21.0831V12.1353C53.6875 11.5171 54.1878 11.0168 54.806 11.0168C55.4242 11.0168 55.9244 11.5171 55.9244 12.1353V21.0831C55.9244 21.7013 55.4242 22.2015 54.806 22.2015Z" fill="white"/>
<path d="M59.2791 17.7277H50.3314C49.7131 17.7277 49.2129 17.2274 49.2129 16.6092C49.2129 15.991 49.7131 15.4907 50.3314 15.4907H59.2791C59.8973 15.4907 60.3976 15.991 60.3976 16.6092C60.3976 17.2274 59.8973 17.7277 59.2791 17.7277Z" fill="white"/>
<path d="M16.7767 22.2015C16.1585 22.2015 15.6582 21.7013 15.6582 21.0831V12.1353C15.6582 11.5171 16.1585 11.0168 16.7767 11.0168C17.3949 11.0168 17.8951 11.5171 17.8951 12.1353V21.0831C17.8951 21.7013 17.3949 22.2015 16.7767 22.2015Z" fill="white"/>
<path d="M21.2498 17.7277H12.3021C11.6838 17.7277 11.1836 17.2274 11.1836 16.6092C11.1836 15.991 11.6838 15.4907 12.3021 15.4907H21.2498C21.868 15.4907 22.3683 15.991 22.3683 16.6092C22.3683 17.2274 21.868 17.7277 21.2498 17.7277Z" fill="white"/>
<path d="M32.9941 23.3202H30.7571C30.1389 23.3202 29.6387 22.8199 29.6387 22.2017C29.6387 21.5835 30.1389 21.0833 30.7571 21.0833H32.9941C33.6123 21.0833 34.1125 21.5835 34.1125 22.2017C34.1125 22.8199 33.6123 23.3202 32.9941 23.3202Z" fill="white"/>
<path d="M42.5019 23.3202H40.265C39.6467 23.3202 39.1465 22.8199 39.1465 22.2017C39.1465 21.5835 39.6467 21.0833 40.265 21.0833H42.5019C43.1201 21.0833 43.6204 21.5835 43.6204 22.2017C43.6204 22.8199 43.1201 23.3202 42.5019 23.3202Z" fill="white"/>
<path d="M13.4211 43.4528H10.0657C9.44752 43.4528 8.94727 42.9525 8.94727 42.3343C8.94727 41.7161 9.44752 41.2158 10.0657 41.2158H13.4211C14.0394 41.2158 14.5396 41.7161 14.5396 42.3343C14.5396 42.9525 14.0394 43.4528 13.4211 43.4528Z" fill="white"/>
<path d="M13.4211 38.9786H10.0657C9.44752 38.9786 8.94727 38.4784 8.94727 37.8602C8.94727 37.242 9.44752 36.7417 10.0657 36.7417H13.4211C14.0394 36.7417 14.5396 37.242 14.5396 37.8602C14.5396 38.4784 14.0394 38.9786 13.4211 38.9786Z" fill="white"/>
<path d="M60.9563 43.4528H57.6009C56.9827 43.4528 56.4824 42.9525 56.4824 42.3343C56.4824 41.7161 56.9827 41.2158 57.6009 41.2158H60.9563C61.5745 41.2158 62.0748 41.7161 62.0748 42.3343C62.0748 42.9525 61.5745 43.4528 60.9563 43.4528Z" fill="white"/>
<path d="M60.9563 38.9786H57.6009C56.9827 38.9786 56.4824 38.4784 56.4824 37.8602C56.4824 37.242 56.9827 36.7417 57.6009 36.7417H60.9563C61.5745 36.7417 62.0748 37.242 62.0748 37.8602C62.0748 38.4784 61.5745 38.9786 60.9563 38.9786Z" fill="white"/>
</svg>
