<svg width="2560" height="1056" viewBox="0 0 2560 1056" fill="none" xmlns="http://www.w3.org/2000/svg">
<g opacity="0.3">
<mask id="mask0" mask-type="alpha" maskUnits="userSpaceOnUse" x="0" y="0" width="2560" height="1056">
<rect width="2560" height="1056" fill="url(#paint0_linear)"/>
</mask>
<g mask="url(#mask0)">
<path d="M742.436 711.283C425.262 743.185 220.196 752.479 0.00244141 484.375V1287.39H2271.61C2253.66 1037.95 1766.43 608.292 742.436 711.283Z" fill="url(#paint1_linear)"/>
<path d="M1909.94 644.57C2187.93 626.001 2399.49 635.685 2560 659.169V0H247.206C427.038 252.867 896.903 712.246 1909.94 644.57Z" fill="url(#paint2_linear)"/>
<path d="M2560 376.417V0H995.593C1265.91 181.167 1846.18 487.035 2560 376.417Z" fill="url(#paint3_linear)"/>
<path d="M2560 853.197C2331.63 1011.38 2021.8 1137.76 1708.41 994.586C1229.89 775.979 799.64 458.46 0.00244141 719.296V1287.39H2560V853.197Z" fill="url(#paint4_linear)"/>
<path d="M516.938 982.508C292.631 1038.91 117.54 990.17 0.00244141 929.13V1287.39H1448.99C1326.84 1042.62 893.08 887.928 516.938 982.508Z" fill="url(#paint5_linear)"/>
<path d="M0.00256348 266.016C196.051 140.13 455.716 62.4384 732.407 208.166C1269.38 490.985 2135.07 554.221 2560 422.908V0H0.00256348V266.016Z" fill="url(#paint6_linear)"/>
<path d="M0.00012207 0V2.43832L3.23254 0H0.00012207Z" fill="url(#paint7_linear)"/>
<path d="M37.3897 0L0.00012207 28.2041V39.1289L51.8725 0H37.3897Z" fill="url(#paint8_linear)"/>
<path d="M86.0297 0L0.00012207 64.8948V75.8195L100.512 0H86.0297Z" fill="url(#paint9_linear)"/>
<path d="M134.67 0L0.00012207 101.585V112.51L149.152 0H134.67Z" fill="url(#paint10_linear)"/>
<path d="M183.31 0L0.00012207 138.276V149.201L197.792 0H183.31Z" fill="url(#paint11_linear)"/>
<path d="M231.949 0L0.00012207 174.967V185.891L246.432 0H231.949Z" fill="url(#paint12_linear)"/>
<path d="M258.986 16.2958L-0.00012207 211.657V222.579L264.178 23.3018C262.423 20.951 260.696 18.6182 258.986 16.2958Z" fill="url(#paint13_linear)"/>
<path d="M276.616 39.6876L-0.00012207 248.348V259.27L281.968 46.5726C280.163 44.2682 278.377 41.9715 276.616 39.6876Z" fill="url(#paint14_linear)"/>
<path d="M294.768 62.6855L-0.00012207 285.038V295.961L300.274 69.4546C298.417 67.1914 296.584 64.9333 294.768 62.6855Z" fill="url(#paint15_linear)"/>
<path d="M313.446 85.287L-0.00012207 321.729V332.651L319.105 91.9402C317.201 89.7156 315.313 87.4987 313.446 85.287Z" fill="url(#paint16_linear)"/>
<path d="M332.632 107.507L-0.00012207 358.42V369.342L338.438 114.047C336.486 111.861 334.547 109.68 332.632 107.507Z" fill="url(#paint17_linear)"/>
<path d="M352.317 129.347L-0.00012207 395.11V406.033L358.277 135.773C356.276 133.626 354.286 131.484 352.317 129.347Z" fill="url(#paint18_linear)"/>
<path d="M372.507 150.807L-0.00012207 431.801V442.723L378.617 157.123C376.565 155.015 374.527 152.908 372.507 150.807Z" fill="url(#paint19_linear)"/>
<path d="M393.198 171.89L-0.00012207 468.492V479.414L399.455 178.092C397.356 176.022 395.267 173.955 393.198 171.89Z" fill="url(#paint20_linear)"/>
<path d="M414.388 192.596L10.6598 497.141C12.561 499.384 14.4588 501.565 16.3566 503.766L420.795 198.688C418.645 196.657 416.508 194.625 414.388 192.596Z" fill="url(#paint21_linear)"/>
<path d="M436.077 212.927L29.9795 519.258C31.949 521.447 33.9185 523.582 35.8845 525.726L442.627 218.908C440.429 216.915 438.248 214.919 436.077 212.927Z" fill="url(#paint22_linear)"/>
<path d="M458.26 232.884L50.0365 540.82C52.0845 542.949 54.1291 545.029 56.1737 547.112L464.957 238.754C462.708 236.797 460.482 234.841 458.26 232.884Z" fill="url(#paint23_linear)"/>
<path d="M480.948 252.46L70.905 561.768C73.0384 563.833 75.1751 565.844 77.3084 567.86L487.802 258.212C485.508 256.294 483.218 254.378 480.948 252.46Z" fill="url(#paint24_linear)"/>
<path d="M504.148 271.652L92.6919 582.026C94.9242 584.019 97.1599 585.953 99.3923 587.894L511.149 277.294C508.801 275.414 506.469 273.532 504.148 271.652Z" fill="url(#paint25_linear)"/>
<path d="M527.844 290.466L115.528 601.489C117.859 603.389 120.191 605.287 122.525 607.136L534.999 295.994C532.603 294.151 530.217 292.31 527.844 290.466Z" fill="url(#paint26_linear)"/>
<path d="M552.065 308.889L139.513 620.087C141.971 621.9 144.432 623.686 146.893 625.442L559.373 314.296C556.922 312.496 554.485 310.694 552.065 308.889Z" fill="url(#paint27_linear)"/>
<path d="M576.791 326.925L164.772 637.724C167.376 639.436 169.98 641.1 172.588 642.75L584.253 332.219C581.754 330.458 579.266 328.691 576.791 326.925Z" fill="url(#paint28_linear)"/>
<path d="M602.05 344.562L191.553 654.213C194.308 655.804 197.069 657.362 199.834 658.891L609.672 349.738C607.119 348.015 604.58 346.29 602.05 344.562Z" fill="url(#paint29_linear)"/>
<path d="M627.827 361.811L219.972 669.466C222.904 670.923 225.836 672.358 228.778 673.748L635.609 366.862C633.005 365.181 630.404 363.497 627.827 361.811Z" fill="url(#paint30_linear)"/>
<path d="M654.15 378.642L250.265 683.308C253.395 684.613 256.528 685.896 259.672 687.134L662.09 383.578C659.427 381.938 656.785 380.29 654.15 378.642Z" fill="url(#paint31_linear)"/>
<path d="M681.003 395.077L282.675 695.548C286.03 696.687 289.392 697.794 292.761 698.862L689.11 399.884C686.403 398.282 683.693 396.683 681.003 395.077Z" fill="url(#paint32_linear)"/>
<path d="M708.419 411.087L317.449 706.007C321.051 706.96 324.665 707.874 328.29 708.752L716.679 415.778C713.911 414.22 711.163 412.655 708.419 411.087Z" fill="url(#paint33_linear)"/>
<path d="M736.391 426.68L354.801 714.522C358.672 715.269 362.556 715.982 366.454 716.654L744.822 431.24C741.999 429.726 739.19 428.204 736.391 426.68Z" fill="url(#paint34_linear)"/>
<path d="M764.917 441.85L394.973 720.91C399.13 721.438 403.308 721.93 407.5 722.386L773.532 446.276C770.651 444.804 767.773 443.331 764.917 441.85Z" fill="url(#paint35_linear)"/>
<path d="M794.032 456.578L438.066 725.094C442.517 725.398 446.996 725.658 451.491 725.89L802.808 460.88C799.869 459.454 796.947 458.017 794.032 456.578Z" fill="url(#paint36_linear)"/>
<path d="M823.736 470.863L484.174 727.007C488.908 727.09 493.66 727.146 498.445 727.167L832.685 475.037C829.685 473.651 826.709 472.258 823.736 470.863Z" fill="url(#paint37_linear)"/>
<path d="M854.025 484.705L533.114 726.778C538.111 726.655 543.129 726.51 548.184 726.333L863.163 488.732C860.108 487.396 857.06 486.054 854.025 484.705Z" fill="url(#paint38_linear)"/>
<path d="M884.919 498.094L584.597 724.633C589.816 724.337 595.059 724.023 600.343 723.68L894.251 501.977C891.135 500.684 888.011 499.397 884.919 498.094Z" fill="url(#paint39_linear)"/>
<path d="M916.452 510.996L638.149 720.928C643.536 720.498 648.949 720.053 654.404 719.589L925.951 514.753C922.773 513.509 919.609 512.253 916.452 510.996Z" fill="url(#paint40_linear)"/>
<path d="M948.612 523.427L693.192 716.098C698.688 715.58 704.21 715.052 709.774 714.512L958.302 527.039C955.056 525.845 951.834 524.637 948.612 523.427Z" fill="url(#paint41_linear)"/>
<path d="M981.414 535.374L749.069 710.639C754.619 710.093 760.169 709.545 765.685 709.027L991.306 538.835C987.999 537.689 984.701 536.535 981.414 535.374Z" fill="url(#paint42_linear)"/>
<path d="M1014.87 546.829L804.296 705.67C809.702 705.23 815.096 704.802 820.472 704.39L1024.97 550.13C1021.6 549.036 1018.22 547.939 1014.87 546.829Z" fill="url(#paint43_linear)"/>
<path d="M1049 557.77L858.155 701.733C863.425 701.396 868.665 701.087 873.904 700.778L1059.31 560.921C1055.87 559.876 1052.42 558.828 1049 557.77Z" fill="url(#paint44_linear)"/>
<path d="M1083.84 568.179L910.652 698.824C915.796 698.582 920.933 698.347 926.046 698.136L1094.34 571.187C1090.82 570.195 1087.34 569.186 1083.84 568.179Z" fill="url(#paint45_linear)"/>
<path d="M1119.39 578.059L961.875 696.874C966.896 696.728 971.91 696.584 976.901 696.465L1130.09 580.906C1126.51 579.967 1122.95 579.014 1119.39 578.059Z" fill="url(#paint46_linear)"/>
<path d="M1155.65 587.397L1011.89 695.837C1016.79 695.78 1021.67 695.742 1026.54 695.711L1166.58 590.07C1162.93 589.187 1159.28 588.296 1155.65 587.397Z" fill="url(#paint47_linear)"/>
<path d="M1192.65 596.177L1060.73 695.687C1065.51 695.716 1070.27 695.767 1075.03 695.821L1203.82 598.672C1200.09 597.846 1196.36 597.019 1192.65 596.177Z" fill="url(#paint48_linear)"/>
<path d="M1230.41 604.383L1108.41 696.414C1113.08 696.527 1117.77 696.633 1122.41 696.772L1241.82 606.698C1238.01 605.931 1234.19 605.169 1230.41 604.383Z" fill="url(#paint49_linear)"/>
<path d="M1268.98 611.981L1155 697.959C1159.57 698.152 1164.13 698.352 1168.67 698.569L1280.61 614.129C1276.72 613.421 1272.84 612.708 1268.98 611.981Z" fill="url(#paint50_linear)"/>
<path d="M1308.35 618.975L1200.55 700.291C1205.02 700.562 1209.45 700.855 1213.89 701.149L1320.21 620.952C1316.23 620.306 1312.3 619.636 1308.35 618.975Z" fill="url(#paint51_linear)"/>
<path d="M1348.54 625.342L1245.06 703.404C1249.43 703.752 1253.77 704.115 1258.11 704.483L1360.67 627.121C1356.61 626.544 1352.58 625.945 1348.54 625.342Z" fill="url(#paint52_linear)"/>
<path d="M1389.59 631.071L1288.55 707.284C1292.83 707.704 1297.1 708.121 1301.34 708.564L1401.98 632.649C1397.84 632.134 1393.71 631.606 1389.59 631.071Z" fill="url(#paint53_linear)"/>
<path d="M1431.51 636.141L1331.1 711.883C1335.28 712.375 1339.44 712.874 1343.59 713.389L1444.18 637.508C1439.95 637.057 1435.72 636.609 1431.51 636.141Z" fill="url(#paint54_linear)"/>
<path d="M1474.34 640.523L1372.71 717.182C1376.8 717.743 1380.85 718.325 1384.91 718.907L1487.29 641.676C1482.97 641.295 1478.64 640.922 1474.34 640.523Z" fill="url(#paint55_linear)"/>
<path d="M1518.13 644.182L1413.4 723.184C1417.39 723.814 1421.37 724.453 1425.34 725.104L1531.35 645.134C1526.93 644.828 1522.53 644.509 1518.13 644.182Z" fill="url(#paint56_linear)"/>
<path d="M1562.89 647.109L1453.18 729.868C1457.08 730.563 1460.99 731.258 1464.87 731.974L1576.38 647.856C1571.86 647.624 1567.38 647.364 1562.89 647.109Z" fill="url(#paint57_linear)"/>
<path d="M1608.64 649.285L1492.1 737.201C1495.92 737.963 1499.72 738.733 1503.51 739.51L1622.46 649.787C1617.84 649.635 1613.24 649.463 1608.64 649.285Z" fill="url(#paint58_linear)"/>
<path d="M1655.43 650.683L1530.16 745.175C1533.9 745.999 1537.61 746.843 1541.32 747.685L1669.57 650.935C1664.85 650.863 1660.13 650.784 1655.43 650.683Z" fill="url(#paint59_linear)"/>
<path d="M1703.28 651.275L1567.37 753.8C1571.02 754.686 1574.67 755.577 1578.3 756.481L1717.77 651.267C1712.94 651.278 1708.09 651.291 1703.28 651.275Z" fill="url(#paint60_linear)"/>
<path d="M1752.29 651.002L1603.76 763.046C1607.33 763.994 1610.89 764.947 1614.44 765.912L1767.1 650.755C1762.15 650.848 1757.21 650.933 1752.29 651.002Z" fill="url(#paint61_linear)"/>
<path d="M1802.46 649.849L1639.34 772.892C1642.83 773.902 1646.3 774.924 1649.77 775.949L1817.6 649.349C1812.53 649.537 1807.49 649.692 1802.46 649.849Z" fill="url(#paint62_linear)"/>
<path d="M1853.82 647.792L1674.11 783.351C1677.53 784.42 1680.93 785.493 1684.32 786.577L1869.35 646.999C1864.16 647.279 1858.99 647.539 1853.82 647.792Z" fill="url(#paint63_linear)"/>
<path d="M1909.96 644.571C1908.78 644.65 1907.62 644.715 1906.44 644.792L1708.09 794.41C1711.43 795.538 1714.76 796.668 1718.07 797.811L1922.26 643.783C1918.16 644.045 1914.09 644.295 1909.96 644.571Z" fill="url(#paint64_linear)"/>
<path d="M1959.4 641.53L1741.31 806.048C1744.57 807.235 1747.8 808.435 1751.03 809.634L1975 640.69C1969.81 640.963 1964.64 641.233 1959.4 641.53Z" fill="url(#paint65_linear)"/>
<path d="M2011.55 638.888L1773.73 818.281C1776.91 819.524 1780.1 820.77 1783.25 822.027L2026.89 638.242C2021.78 638.453 2016.7 638.656 2011.55 638.888Z" fill="url(#paint66_linear)"/>
<path d="M2062.81 636.908L1805.38 831.093C1808.49 832.396 1811.59 833.704 1814.66 835.019L2077.9 636.447C2072.89 636.591 2067.87 636.743 2062.81 636.908Z" fill="url(#paint67_linear)"/>
<path d="M2113.2 635.587L1836.29 844.474C1839.32 845.833 1842.33 847.203 1845.33 848.578L2128.05 635.309C2123.14 635.386 2118.17 635.487 2113.2 635.587Z" fill="url(#paint68_linear)"/>
<path d="M2162.72 634.925L1866.4 858.447C1869.36 859.863 1872.3 861.285 1875.22 862.714L2177.3 634.851C2172.47 634.864 2167.6 634.892 2162.72 634.925Z" fill="url(#paint69_linear)"/>
<path d="M2211.35 634.93L1895.77 872.982C1898.65 874.457 1901.5 875.945 1904.35 877.431L2225.65 635.067C2220.91 635.013 2216.15 634.964 2211.35 634.93Z" fill="url(#paint70_linear)"/>
<path d="M2259.1 635.608L1924.36 888.116C1927.16 889.648 1929.95 891.185 1932.72 892.728L2273.12 635.958C2268.46 635.834 2263.81 635.708 2259.1 635.608Z" fill="url(#paint71_linear)"/>
<path d="M2305.9 636.993L1952.19 903.81C1954.92 905.401 1957.62 907.002 1960.31 908.604L2319.68 637.526C2315.12 637.335 2310.51 637.165 2305.9 636.993Z" fill="url(#paint72_linear)"/>
<path d="M2351.8 639.063L1979.21 920.113C1981.86 921.764 1984.5 923.419 1987.11 925.08L2365.28 639.817C2360.81 639.557 2356.32 639.302 2351.8 639.063Z" fill="url(#paint73_linear)"/>
<path d="M2396.76 641.833L2005.46 937.001C2008.03 938.711 2010.6 940.42 2013.13 942.14L2409.97 642.796C2405.59 642.464 2401.19 642.145 2396.76 641.833Z" fill="url(#paint74_linear)"/>
<path d="M2440.77 645.33L2030.91 954.494C2033.41 956.268 2035.87 958.047 2038.32 959.829L2453.69 646.509C2449.41 646.108 2445.1 645.714 2440.77 645.33Z" fill="url(#paint75_linear)"/>
<path d="M2483.82 649.542L2055.53 972.621C2057.94 974.456 2060.33 976.295 2062.7 978.138L2496.46 650.938C2492.28 650.462 2488.06 650.001 2483.82 649.542Z" fill="url(#paint76_linear)"/>
<path d="M2525.89 654.501L2079.3 991.378C2081.63 993.278 2083.93 995.181 2086.21 997.086L2538.21 656.129C2534.13 655.578 2530.03 655.034 2525.89 654.501Z" fill="url(#paint77_linear)"/>
<path d="M2560 665.462L2102.2 1010.79C2104.44 1012.76 2106.66 1014.73 2108.85 1016.7L2560 676.387V665.462Z" fill="url(#paint78_linear)"/>
<path d="M2560 702.153L2124.2 1030.89C2126.34 1032.93 2128.47 1034.97 2130.57 1037.01L2560 713.078V702.153Z" fill="url(#paint79_linear)"/>
<path d="M2560 738.844L2145.23 1051.72C2147.28 1053.83 2149.3 1055.94 2151.3 1058.06L2560 749.768V738.844Z" fill="url(#paint80_linear)"/>
<path d="M2560 775.534L2165.25 1073.3C2167.2 1075.5 2169.12 1077.69 2171.01 1079.88L2560 786.459V775.534Z" fill="url(#paint81_linear)"/>
<path d="M2560 812.225L2184.19 1095.71C2186.03 1097.99 2187.83 1100.27 2189.61 1102.54L2560 823.149V812.225Z" fill="url(#paint82_linear)"/>
<path d="M2560 848.915L2201.97 1118.99C2203.68 1121.37 2205.36 1123.74 2207.01 1126.11L2560 859.84V848.915Z" fill="url(#paint83_linear)"/>
<path d="M2560 885.606L2218.41 1143.27C2219.99 1145.75 2221.53 1148.23 2223.04 1150.71L2560 896.531V885.606Z" fill="url(#paint84_linear)"/>
<path d="M2560 922.297L2233.41 1168.65C2234.83 1171.26 2236.21 1173.86 2237.55 1176.45L2560 933.221V922.297Z" fill="url(#paint85_linear)"/>
<path d="M2560 958.987L2246.7 1195.32C2247.94 1198.07 2249.13 1200.81 2250.27 1203.54L2560 969.912V958.987Z" fill="url(#paint86_linear)"/>
<path d="M2560 995.678L2257.93 1223.54C2258.94 1226.47 2259.91 1229.39 2260.82 1232.28L2560 1006.6V995.678Z" fill="url(#paint87_linear)"/>
<path d="M2560 1032.37L2266.54 1253.73C2267.25 1256.9 2267.91 1260.06 2268.48 1263.19L2560 1043.29V1032.37Z" fill="url(#paint88_linear)"/>
</g>
</g>
<defs>
<linearGradient id="paint0_linear" x1="1280" y1="0" x2="1280" y2="1056" gradientUnits="userSpaceOnUse">
<stop stop-color="#C4C4C4"/>
<stop offset="1" stop-color="#C4C4C4" stop-opacity="0"/>
</linearGradient>
<linearGradient id="paint1_linear" x1="1108.64" y1="1337.72" x2="1148.27" y2="584.661" gradientUnits="userSpaceOnUse">
<stop stop-color="#FF424E"/>
<stop offset="1" stop-color="#FF424E" stop-opacity="0.5"/>
</linearGradient>
<linearGradient id="paint2_linear" x1="1375.94" y1="700.48" x2="1402.2" y2="81.7233" gradientUnits="userSpaceOnUse">
<stop stop-color="#FF424E"/>
<stop offset="1" stop-color="#FF424E" stop-opacity="0.5"/>
</linearGradient>
<linearGradient id="paint3_linear" x1="1759.09" y1="424.983" x2="1773.38" y2="49.4497" gradientUnits="userSpaceOnUse">
<stop stop-color="#FF424E"/>
<stop offset="1" stop-color="#FF424E" stop-opacity="0.5"/>
</linearGradient>
<linearGradient id="paint4_linear" x1="1249.39" y1="1329.14" x2="1273.62" y2="703.577" gradientUnits="userSpaceOnUse">
<stop stop-color="#FF424E"/>
<stop offset="1" stop-color="#FF424E" stop-opacity="0.5"/>
</linearGradient>
<linearGradient id="paint5_linear" x1="707.171" y1="1309.84" x2="719.555" y2="973.397" gradientUnits="userSpaceOnUse">
<stop stop-color="#FF424E"/>
<stop offset="1" stop-color="#FF424E" stop-opacity="0.5"/>
</linearGradient>
<linearGradient id="paint6_linear" x1="1249.39" y1="519.061" x2="1262.42" y2="60.1024" gradientUnits="userSpaceOnUse">
<stop stop-color="#FF424E"/>
<stop offset="1" stop-color="#FF424E" stop-opacity="0.5"/>
</linearGradient>
<linearGradient id="paint7_linear" x1="1.57768" y1="2.59113" x2="1.83197" y2="0.326737" gradientUnits="userSpaceOnUse">
<stop stop-color="#FF424E"/>
<stop offset="1" stop-color="#FF424E" stop-opacity="0"/>
</linearGradient>
<linearGradient id="paint8_linear" x1="25.316" y1="41.5812" x2="29.3968" y2="5.24333" gradientUnits="userSpaceOnUse">
<stop stop-color="#FF424E"/>
<stop offset="1" stop-color="#FF424E" stop-opacity="0"/>
</linearGradient>
<linearGradient id="paint9_linear" x1="49.0543" y1="80.5713" x2="56.9616" y2="10.1599" gradientUnits="userSpaceOnUse">
<stop stop-color="#FF424E"/>
<stop offset="1" stop-color="#FF424E" stop-opacity="0"/>
</linearGradient>
<linearGradient id="paint10_linear" x1="72.7926" y1="119.561" x2="84.5264" y2="15.0765" gradientUnits="userSpaceOnUse">
<stop stop-color="#FF424E"/>
<stop offset="1" stop-color="#FF424E" stop-opacity="0"/>
</linearGradient>
<linearGradient id="paint11_linear" x1="96.5309" y1="158.551" x2="112.091" y2="19.9931" gradientUnits="userSpaceOnUse">
<stop stop-color="#FF424E"/>
<stop offset="1" stop-color="#FF424E" stop-opacity="0"/>
</linearGradient>
<linearGradient id="paint12_linear" x1="120.269" y1="197.541" x2="139.656" y2="24.9097" gradientUnits="userSpaceOnUse">
<stop stop-color="#FF424E"/>
<stop offset="1" stop-color="#FF424E" stop-opacity="0"/>
</linearGradient>
<linearGradient id="paint13_linear" x1="128.93" y1="235.507" x2="151.18" y2="44.1086" gradientUnits="userSpaceOnUse">
<stop stop-color="#FF424E"/>
<stop offset="1" stop-color="#FF424E" stop-opacity="0"/>
</linearGradient>
<linearGradient id="paint14_linear" x1="137.612" y1="273.032" x2="161.234" y2="69.2789" gradientUnits="userSpaceOnUse">
<stop stop-color="#FF424E"/>
<stop offset="1" stop-color="#FF424E" stop-opacity="0"/>
</linearGradient>
<linearGradient id="paint15_linear" x1="146.546" y1="310.58" x2="171.583" y2="94.1082" gradientUnits="userSpaceOnUse">
<stop stop-color="#FF424E"/>
<stop offset="1" stop-color="#FF424E" stop-opacity="0"/>
</linearGradient>
<linearGradient id="paint16_linear" x1="155.736" y1="348.154" x2="182.229" y2="118.594" gradientUnits="userSpaceOnUse">
<stop stop-color="#FF424E"/>
<stop offset="1" stop-color="#FF424E" stop-opacity="0"/>
</linearGradient>
<linearGradient id="paint17_linear" x1="165.172" y1="385.751" x2="193.16" y2="142.751" gradientUnits="userSpaceOnUse">
<stop stop-color="#FF424E"/>
<stop offset="1" stop-color="#FF424E" stop-opacity="0"/>
</linearGradient>
<linearGradient id="paint18_linear" x1="174.854" y1="423.373" x2="204.378" y2="166.577" gradientUnits="userSpaceOnUse">
<stop stop-color="#FF424E"/>
<stop offset="1" stop-color="#FF424E" stop-opacity="0"/>
</linearGradient>
<linearGradient id="paint19_linear" x1="184.78" y1="461.018" x2="215.88" y2="190.075" gradientUnits="userSpaceOnUse">
<stop stop-color="#FF424E"/>
<stop offset="1" stop-color="#FF424E" stop-opacity="0"/>
</linearGradient>
<linearGradient id="paint20_linear" x1="194.95" y1="498.687" x2="227.666" y2="213.246" gradientUnits="userSpaceOnUse">
<stop stop-color="#FF424E"/>
<stop offset="1" stop-color="#FF424E" stop-opacity="0"/>
</linearGradient>
<linearGradient id="paint21_linear" x1="210.823" y1="523.268" x2="243.458" y2="234.335" gradientUnits="userSpaceOnUse">
<stop stop-color="#FF424E"/>
<stop offset="1" stop-color="#FF424E" stop-opacity="0"/>
</linearGradient>
<linearGradient id="paint22_linear" x1="231.369" y1="545.33" x2="264.147" y2="254.878" gradientUnits="userSpaceOnUse">
<stop stop-color="#FF424E"/>
<stop offset="1" stop-color="#FF424E" stop-opacity="0"/>
</linearGradient>
<linearGradient id="paint23_linear" x1="252.535" y1="566.806" x2="285.433" y2="275.02" gradientUnits="userSpaceOnUse">
<stop stop-color="#FF424E"/>
<stop offset="1" stop-color="#FF424E" stop-opacity="0"/>
</linearGradient>
<linearGradient id="paint24_linear" x1="274.368" y1="587.626" x2="307.355" y2="294.745" gradientUnits="userSpaceOnUse">
<stop stop-color="#FF424E"/>
<stop offset="1" stop-color="#FF424E" stop-opacity="0"/>
</linearGradient>
<linearGradient id="paint25_linear" x1="296.916" y1="607.714" x2="329.957" y2="314.043" gradientUnits="userSpaceOnUse">
<stop stop-color="#FF424E"/>
<stop offset="1" stop-color="#FF424E" stop-opacity="0"/>
</linearGradient>
<linearGradient id="paint26_linear" x1="320.247" y1="626.982" x2="353.298" y2="332.906" gradientUnits="userSpaceOnUse">
<stop stop-color="#FF424E"/>
<stop offset="1" stop-color="#FF424E" stop-opacity="0"/>
</linearGradient>
<linearGradient id="paint27_linear" x1="344.422" y1="645.281" x2="377.42" y2="351.304" gradientUnits="userSpaceOnUse">
<stop stop-color="#FF424E"/>
<stop offset="1" stop-color="#FF424E" stop-opacity="0"/>
</linearGradient>
<linearGradient id="paint28_linear" x1="369.496" y1="662.543" x2="402.372" y2="369.232" gradientUnits="userSpaceOnUse">
<stop stop-color="#FF424E"/>
<stop offset="1" stop-color="#FF424E" stop-opacity="0"/>
</linearGradient>
<linearGradient id="paint29_linear" x1="395.613" y1="678.591" x2="428.286" y2="386.658" gradientUnits="userSpaceOnUse">
<stop stop-color="#FF424E"/>
<stop offset="1" stop-color="#FF424E" stop-opacity="0"/>
</linearGradient>
<linearGradient id="paint30_linear" x1="422.82" y1="693.297" x2="455.191" y2="403.574" gradientUnits="userSpaceOnUse">
<stop stop-color="#FF424E"/>
<stop offset="1" stop-color="#FF424E" stop-opacity="0"/>
</linearGradient>
<linearGradient id="paint31_linear" x1="451.252" y1="706.468" x2="483.207" y2="419.931" gradientUnits="userSpaceOnUse">
<stop stop-color="#FF424E"/>
<stop offset="1" stop-color="#FF424E" stop-opacity="0"/>
</linearGradient>
<linearGradient id="paint32_linear" x1="481.032" y1="717.901" x2="512.432" y2="435.72" gradientUnits="userSpaceOnUse">
<stop stop-color="#FF424E"/>
<stop offset="1" stop-color="#FF424E" stop-opacity="0"/>
</linearGradient>
<linearGradient id="paint33_linear" x1="512.29" y1="727.407" x2="542.983" y2="450.895" gradientUnits="userSpaceOnUse">
<stop stop-color="#FF424E"/>
<stop offset="1" stop-color="#FF424E" stop-opacity="0"/>
</linearGradient>
<linearGradient id="paint34_linear" x1="545.147" y1="734.827" x2="574.965" y2="465.441" gradientUnits="userSpaceOnUse">
<stop stop-color="#FF424E"/>
<stop offset="1" stop-color="#FF424E" stop-opacity="0"/>
</linearGradient>
<linearGradient id="paint35_linear" x1="579.725" y1="739.967" x2="608.48" y2="479.329" gradientUnits="userSpaceOnUse">
<stop stop-color="#FF424E"/>
<stop offset="1" stop-color="#FF424E" stop-opacity="0"/>
</linearGradient>
<linearGradient id="paint36_linear" x1="616.075" y1="742.768" x2="643.582" y2="492.536" gradientUnits="userSpaceOnUse">
<stop stop-color="#FF424E"/>
<stop offset="1" stop-color="#FF424E" stop-opacity="0"/>
</linearGradient>
<linearGradient id="paint37_linear" x1="654.262" y1="743.23" x2="680.338" y2="505.061" gradientUnits="userSpaceOnUse">
<stop stop-color="#FF424E"/>
<stop offset="1" stop-color="#FF424E" stop-opacity="0"/>
</linearGradient>
<linearGradient id="paint38_linear" x1="694.191" y1="741.949" x2="718.755" y2="516.99" gradientUnits="userSpaceOnUse">
<stop stop-color="#FF424E"/>
<stop offset="1" stop-color="#FF424E" stop-opacity="0"/>
</linearGradient>
<linearGradient id="paint39_linear" x1="735.721" y1="738.831" x2="758.652" y2="528.295" gradientUnits="userSpaceOnUse">
<stop stop-color="#FF424E"/>
<stop offset="1" stop-color="#FF424E" stop-opacity="0"/>
</linearGradient>
<linearGradient id="paint40_linear" x1="778.609" y1="734.085" x2="799.797" y2="538.969" gradientUnits="userSpaceOnUse">
<stop stop-color="#FF424E"/>
<stop offset="1" stop-color="#FF424E" stop-opacity="0"/>
</linearGradient>
<linearGradient id="paint41_linear" x1="822.577" y1="728.173" x2="841.954" y2="549.085" gradientUnits="userSpaceOnUse">
<stop stop-color="#FF424E"/>
<stop offset="1" stop-color="#FF424E" stop-opacity="0"/>
</linearGradient>
<linearGradient id="paint42_linear" x1="867.291" y1="721.623" x2="884.84" y2="558.697" gradientUnits="userSpaceOnUse">
<stop stop-color="#FF424E"/>
<stop offset="1" stop-color="#FF424E" stop-opacity="0"/>
</linearGradient>
<linearGradient id="paint43_linear" x1="911.994" y1="715.625" x2="927.819" y2="567.949" gradientUnits="userSpaceOnUse">
<stop stop-color="#FF424E"/>
<stop offset="1" stop-color="#FF424E" stop-opacity="0"/>
</linearGradient>
<linearGradient id="paint44_linear" x1="956.327" y1="710.756" x2="970.59" y2="576.894" gradientUnits="userSpaceOnUse">
<stop stop-color="#FF424E"/>
<stop offset="1" stop-color="#FF424E" stop-opacity="0"/>
</linearGradient>
<linearGradient id="paint45_linear" x1="1000.3" y1="707.011" x2="1013.16" y2="585.518" gradientUnits="userSpaceOnUse">
<stop stop-color="#FF424E"/>
<stop offset="1" stop-color="#FF424E" stop-opacity="0"/>
</linearGradient>
<linearGradient id="paint46_linear" x1="1043.97" y1="704.321" x2="1055.59" y2="593.811" gradientUnits="userSpaceOnUse">
<stop stop-color="#FF424E"/>
<stop offset="1" stop-color="#FF424E" stop-opacity="0"/>
</linearGradient>
<linearGradient id="paint47_linear" x1="1087.39" y1="702.633" x2="1097.92" y2="601.757" gradientUnits="userSpaceOnUse">
<stop stop-color="#FF424E"/>
<stop offset="1" stop-color="#FF424E" stop-opacity="0"/>
</linearGradient>
<linearGradient id="paint48_linear" x1="1130.56" y1="702.066" x2="1140.17" y2="609.359" gradientUnits="userSpaceOnUse">
<stop stop-color="#FF424E"/>
<stop offset="1" stop-color="#FF424E" stop-opacity="0"/>
</linearGradient>
<linearGradient id="paint49_linear" x1="1173.52" y1="702.562" x2="1182.38" y2="616.595" gradientUnits="userSpaceOnUse">
<stop stop-color="#FF424E"/>
<stop offset="1" stop-color="#FF424E" stop-opacity="0"/>
</linearGradient>
<linearGradient id="paint50_linear" x1="1216.3" y1="703.995" x2="1224.57" y2="623.419" gradientUnits="userSpaceOnUse">
<stop stop-color="#FF424E"/>
<stop offset="1" stop-color="#FF424E" stop-opacity="0"/>
</linearGradient>
<linearGradient id="paint51_linear" x1="1258.95" y1="706.299" x2="1266.77" y2="629.823" gradientUnits="userSpaceOnUse">
<stop stop-color="#FF424E"/>
<stop offset="1" stop-color="#FF424E" stop-opacity="0"/>
</linearGradient>
<linearGradient id="paint52_linear" x1="1301.48" y1="709.443" x2="1308.99" y2="635.785" gradientUnits="userSpaceOnUse">
<stop stop-color="#FF424E"/>
<stop offset="1" stop-color="#FF424E" stop-opacity="0"/>
</linearGradient>
<linearGradient id="paint53_linear" x1="1343.91" y1="713.421" x2="1351.25" y2="641.294" gradientUnits="userSpaceOnUse">
<stop stop-color="#FF424E"/>
<stop offset="1" stop-color="#FF424E" stop-opacity="0"/>
</linearGradient>
<linearGradient id="paint54_linear" x1="1386.29" y1="718.23" x2="1393.6" y2="646.331" gradientUnits="userSpaceOnUse">
<stop stop-color="#FF424E"/>
<stop offset="1" stop-color="#FF424E" stop-opacity="0"/>
</linearGradient>
<linearGradient id="paint55_linear" x1="1428.63" y1="723.819" x2="1436.06" y2="650.865" gradientUnits="userSpaceOnUse">
<stop stop-color="#FF424E"/>
<stop offset="1" stop-color="#FF424E" stop-opacity="0"/>
</linearGradient>
<linearGradient id="paint56_linear" x1="1470.97" y1="730.176" x2="1478.66" y2="654.863" gradientUnits="userSpaceOnUse">
<stop stop-color="#FF424E"/>
<stop offset="1" stop-color="#FF424E" stop-opacity="0"/>
</linearGradient>
<linearGradient id="paint57_linear" x1="1513.3" y1="737.293" x2="1521.4" y2="658.318" gradientUnits="userSpaceOnUse">
<stop stop-color="#FF424E"/>
<stop offset="1" stop-color="#FF424E" stop-opacity="0"/>
</linearGradient>
<linearGradient id="paint58_linear" x1="1555.72" y1="745.165" x2="1564.37" y2="661.21" gradientUnits="userSpaceOnUse">
<stop stop-color="#FF424E"/>
<stop offset="1" stop-color="#FF424E" stop-opacity="0"/>
</linearGradient>
<linearGradient id="paint59_linear" x1="1598.2" y1="753.765" x2="1607.55" y2="663.514" gradientUnits="userSpaceOnUse">
<stop stop-color="#FF424E"/>
<stop offset="1" stop-color="#FF424E" stop-opacity="0"/>
</linearGradient>
<linearGradient id="paint60_linear" x1="1640.77" y1="763.074" x2="1650.96" y2="665.195" gradientUnits="userSpaceOnUse">
<stop stop-color="#FF424E"/>
<stop offset="1" stop-color="#FF424E" stop-opacity="0"/>
</linearGradient>
<linearGradient id="paint61_linear" x1="1683.47" y1="773.129" x2="1694.72" y2="666.017" gradientUnits="userSpaceOnUse">
<stop stop-color="#FF424E"/>
<stop offset="1" stop-color="#FF424E" stop-opacity="0"/>
</linearGradient>
<linearGradient id="paint62_linear" x1="1726.34" y1="783.883" x2="1738.78" y2="666.147" gradientUnits="userSpaceOnUse">
<stop stop-color="#FF424E"/>
<stop offset="1" stop-color="#FF424E" stop-opacity="0"/>
</linearGradient>
<linearGradient id="paint63_linear" x1="1769.4" y1="795.325" x2="1783.21" y2="665.538" gradientUnits="userSpaceOnUse">
<stop stop-color="#FF424E"/>
<stop offset="1" stop-color="#FF424E" stop-opacity="0"/>
</linearGradient>
<linearGradient id="paint64_linear" x1="1812.62" y1="807.464" x2="1827.95" y2="664.26" gradientUnits="userSpaceOnUse">
<stop stop-color="#FF424E"/>
<stop offset="1" stop-color="#FF424E" stop-opacity="0"/>
</linearGradient>
<linearGradient id="paint65_linear" x1="1855.36" y1="820.222" x2="1872.26" y2="663.169" gradientUnits="userSpaceOnUse">
<stop stop-color="#FF424E"/>
<stop offset="1" stop-color="#FF424E" stop-opacity="0"/>
</linearGradient>
<linearGradient id="paint66_linear" x1="1897.28" y1="833.545" x2="1915.75" y2="662.712" gradientUnits="userSpaceOnUse">
<stop stop-color="#FF424E"/>
<stop offset="1" stop-color="#FF424E" stop-opacity="0"/>
</linearGradient>
<linearGradient id="paint67_linear" x1="1938.39" y1="847.464" x2="1958.41" y2="662.902" gradientUnits="userSpaceOnUse">
<stop stop-color="#FF424E"/>
<stop offset="1" stop-color="#FF424E" stop-opacity="0"/>
</linearGradient>
<linearGradient id="paint68_linear" x1="1978.68" y1="861.944" x2="2000.25" y2="663.737" gradientUnits="userSpaceOnUse">
<stop stop-color="#FF424E"/>
<stop offset="1" stop-color="#FF424E" stop-opacity="0"/>
</linearGradient>
<linearGradient id="paint69_linear" x1="2018.13" y1="876.994" x2="2041.24" y2="665.237" gradientUnits="userSpaceOnUse">
<stop stop-color="#FF424E"/>
<stop offset="1" stop-color="#FF424E" stop-opacity="0"/>
</linearGradient>
<linearGradient id="paint70_linear" x1="2056.77" y1="892.629" x2="2081.43" y2="667.285" gradientUnits="userSpaceOnUse">
<stop stop-color="#FF424E"/>
<stop offset="1" stop-color="#FF424E" stop-opacity="0"/>
</linearGradient>
<linearGradient id="paint71_linear" x1="2094.57" y1="908.842" x2="2120.79" y2="669.929" gradientUnits="userSpaceOnUse">
<stop stop-color="#FF424E"/>
<stop offset="1" stop-color="#FF424E" stop-opacity="0"/>
</linearGradient>
<linearGradient id="paint72_linear" x1="2131.54" y1="925.626" x2="2159.3" y2="673.263" gradientUnits="userSpaceOnUse">
<stop stop-color="#FF424E"/>
<stop offset="1" stop-color="#FF424E" stop-opacity="0"/>
</linearGradient>
<linearGradient id="paint73_linear" x1="2167.63" y1="943.005" x2="2196.94" y2="677.272" gradientUnits="userSpaceOnUse">
<stop stop-color="#FF424E"/>
<stop offset="1" stop-color="#FF424E" stop-opacity="0"/>
</linearGradient>
<linearGradient id="paint74_linear" x1="2202.88" y1="960.961" x2="2233.71" y2="681.966" gradientUnits="userSpaceOnUse">
<stop stop-color="#FF424E"/>
<stop offset="1" stop-color="#FF424E" stop-opacity="0"/>
</linearGradient>
<linearGradient id="paint75_linear" x1="2237.24" y1="979.539" x2="2269.6" y2="687.373" gradientUnits="userSpaceOnUse">
<stop stop-color="#FF424E"/>
<stop offset="1" stop-color="#FF424E" stop-opacity="0"/>
</linearGradient>
<linearGradient id="paint76_linear" x1="2270.72" y1="998.732" x2="2304.59" y2="693.483" gradientUnits="userSpaceOnUse">
<stop stop-color="#FF424E"/>
<stop offset="1" stop-color="#FF424E" stop-opacity="0"/>
</linearGradient>
<linearGradient id="paint77_linear" x1="2303.27" y1="1018.56" x2="2338.64" y2="700.326" gradientUnits="userSpaceOnUse">
<stop stop-color="#FF424E"/>
<stop offset="1" stop-color="#FF424E" stop-opacity="0"/>
</linearGradient>
<linearGradient id="paint78_linear" x1="2325.62" y1="1038.71" x2="2362.87" y2="712.669" gradientUnits="userSpaceOnUse">
<stop stop-color="#FF424E"/>
<stop offset="1" stop-color="#FF424E" stop-opacity="0"/>
</linearGradient>
<linearGradient id="paint79_linear" x1="2336.89" y1="1058" x2="2372.44" y2="747.17" gradientUnits="userSpaceOnUse">
<stop stop-color="#FF424E"/>
<stop offset="1" stop-color="#FF424E" stop-opacity="0"/>
</linearGradient>
<linearGradient id="paint80_linear" x1="2347.65" y1="1078.06" x2="2381.6" y2="781.77" gradientUnits="userSpaceOnUse">
<stop stop-color="#FF424E"/>
<stop offset="1" stop-color="#FF424E" stop-opacity="0"/>
</linearGradient>
<linearGradient id="paint81_linear" x1="2357.9" y1="1098.96" x2="2390.33" y2="816.474" gradientUnits="userSpaceOnUse">
<stop stop-color="#FF424E"/>
<stop offset="1" stop-color="#FF424E" stop-opacity="0"/>
</linearGradient>
<linearGradient id="paint82_linear" x1="2367.6" y1="1120.74" x2="2398.59" y2="851.292" gradientUnits="userSpaceOnUse">
<stop stop-color="#FF424E"/>
<stop offset="1" stop-color="#FF424E" stop-opacity="0"/>
</linearGradient>
<linearGradient id="paint83_linear" x1="2376.7" y1="1143.48" x2="2406.35" y2="886.231" gradientUnits="userSpaceOnUse">
<stop stop-color="#FF424E"/>
<stop offset="1" stop-color="#FF424E" stop-opacity="0"/>
</linearGradient>
<linearGradient id="paint84_linear" x1="2385.12" y1="1167.32" x2="2413.55" y2="921.309" gradientUnits="userSpaceOnUse">
<stop stop-color="#FF424E"/>
<stop offset="1" stop-color="#FF424E" stop-opacity="0"/>
</linearGradient>
<linearGradient id="paint85_linear" x1="2392.8" y1="1192.38" x2="2420.12" y2="956.542" gradientUnits="userSpaceOnUse">
<stop stop-color="#FF424E"/>
<stop offset="1" stop-color="#FF424E" stop-opacity="0"/>
</linearGradient>
<linearGradient id="paint86_linear" x1="2399.6" y1="1218.87" x2="2425.97" y2="991.958" gradientUnits="userSpaceOnUse">
<stop stop-color="#FF424E"/>
<stop offset="1" stop-color="#FF424E" stop-opacity="0"/>
</linearGradient>
<linearGradient id="paint87_linear" x1="2405.35" y1="1247.11" x2="2430.95" y2="1027.6" gradientUnits="userSpaceOnUse">
<stop stop-color="#FF424E"/>
<stop offset="1" stop-color="#FF424E" stop-opacity="0"/>
</linearGradient>
<linearGradient id="paint88_linear" x1="2409.76" y1="1277.66" x2="2434.83" y2="1063.53" gradientUnits="userSpaceOnUse">
<stop stop-color="#FF424E"/>
<stop offset="1" stop-color="#FF424E" stop-opacity="0"/>
</linearGradient>
</defs>
</svg>
