<svg width="2560" height="1400" viewBox="0 0 2560 1400" fill="none" xmlns="http://www.w3.org/2000/svg">
<g opacity="0.3">
<mask id="mask0" mask-type="alpha" maskUnits="userSpaceOnUse" x="0" y="0" width="2560" height="1400">
<rect x="2560" y="1399.92" width="2560" height="1399.92" transform="rotate(-180 2560 1399.92)" fill="url(#paint0_linear)"/>
</mask>
<g mask="url(#mask0)">
<path d="M1817.56 456.984C2134.74 414.692 2339.8 402.37 2560 757.79V-306.749H288.392C306.339 23.9311 793.565 593.517 1817.56 456.984Z" fill="url(#paint1_linear)"/>
<path d="M650.055 545.423C372.074 570.04 160.512 557.202 0.000488281 526.069V1399.92H2312.79C2132.96 1064.7 1663.1 455.707 650.055 545.423Z" fill="url(#paint2_linear)"/>
<path d="M-0.000366211 900.908V1399.92H1564.41C1294.08 1159.75 713.822 754.264 -0.000366211 900.908Z" fill="url(#paint3_linear)"/>
<path d="M0 268.851C228.372 59.1465 538.2 -108.383 851.592 81.4151C1330.11 371.217 1760.36 792.145 2560 446.361V-306.749H0V268.851Z" fill="url(#paint4_linear)"/>
<path d="M2043.06 97.4272C2267.37 22.6582 2442.46 87.2691 2560 168.189V-306.749H1111C1233.16 17.743 1666.92 222.809 2043.06 97.4272Z" fill="url(#paint5_linear)"/>
<path d="M2560 1047.26C2363.95 1214.15 2104.28 1317.14 1827.59 1123.95C1290.62 749.028 424.926 665.197 0.000976562 839.276V1399.92H2560V1047.26Z" fill="url(#paint6_linear)"/>
<path d="M2560 1399.92V1396.68L2556.77 1399.92H2560Z" fill="url(#paint7_linear)"/>
<path d="M2522.61 1399.92L2560 1362.53V1348.04L2508.13 1399.92H2522.61Z" fill="url(#paint8_linear)"/>
<path d="M2473.97 1399.92L2560 1313.89V1299.4L2459.49 1399.92H2473.97Z" fill="url(#paint9_linear)"/>
<path d="M2425.33 1399.92L2560 1265.25V1250.76L2410.85 1399.92H2425.33Z" fill="url(#paint10_linear)"/>
<path d="M2376.69 1399.92L2560 1216.61V1202.12L2362.21 1399.92H2376.69Z" fill="url(#paint11_linear)"/>
<path d="M2328.05 1399.92L2560 1167.97V1153.48L2313.57 1399.92H2328.05Z" fill="url(#paint12_linear)"/>
<path d="M2301.01 1378.31L2560 1119.33V1104.85L2295.82 1369.03C2297.58 1372.14 2299.3 1375.23 2301.01 1378.31Z" fill="url(#paint13_linear)"/>
<path d="M2283.38 1347.3L2560 1070.69V1056.21L2278.03 1338.18C2279.84 1341.23 2281.62 1344.27 2283.38 1347.3Z" fill="url(#paint14_linear)"/>
<path d="M2265.23 1316.81L2560 1022.05V1007.57L2259.73 1307.84C2261.58 1310.84 2263.42 1313.83 2265.23 1316.81Z" fill="url(#paint15_linear)"/>
<path d="M2246.55 1286.85L2560 973.407V958.927L2240.89 1278.03C2242.8 1280.98 2244.69 1283.92 2246.55 1286.85Z" fill="url(#paint16_linear)"/>
<path d="M2227.37 1257.4L2560 924.767V910.288L2221.56 1248.73C2223.51 1251.62 2225.45 1254.51 2227.37 1257.4Z" fill="url(#paint17_linear)"/>
<path d="M2207.68 1228.44L2560 876.127V861.647L2201.72 1219.92C2203.72 1222.77 2205.71 1225.61 2207.68 1228.44Z" fill="url(#paint18_linear)"/>
<path d="M2187.49 1199.99L2560 827.487V813.008L2181.38 1191.62C2183.43 1194.42 2185.47 1197.21 2187.49 1199.99Z" fill="url(#paint19_linear)"/>
<path d="M2166.8 1172.05L2560 778.847V764.368L2160.54 1163.82C2162.64 1166.57 2164.73 1169.31 2166.8 1172.05Z" fill="url(#paint20_linear)"/>
<path d="M2145.61 1144.6L2549.34 740.867C2547.44 737.894 2545.54 735.003 2543.64 732.084L2139.2 1136.52C2141.36 1139.21 2143.49 1141.91 2145.61 1144.6Z" fill="url(#paint21_linear)"/>
<path d="M2123.92 1117.64L2530.02 711.546C2528.05 708.645 2526.08 705.815 2524.12 702.972L2117.37 1109.71C2119.57 1112.36 2121.75 1115 2123.92 1117.64Z" fill="url(#paint22_linear)"/>
<path d="M2101.74 1091.19L2509.96 682.963C2507.92 680.14 2505.87 677.382 2503.83 674.621L2095.04 1083.4C2097.29 1086 2099.52 1088.59 2101.74 1091.19Z" fill="url(#paint23_linear)"/>
<path d="M2079.05 1065.24L2489.09 655.192C2486.96 652.455 2484.82 649.789 2482.69 647.116L2072.2 1057.61C2074.49 1060.15 2076.78 1062.69 2079.05 1065.24Z" fill="url(#paint24_linear)"/>
<path d="M2055.85 1039.79L2467.31 628.336C2465.08 625.694 2462.84 623.131 2460.61 620.557L2048.85 1032.31C2051.2 1034.81 2053.53 1037.3 2055.85 1039.79Z" fill="url(#paint25_linear)"/>
<path d="M2032.16 1014.85L2444.47 602.535C2442.14 600.016 2439.81 597.5 2437.48 595.049L2025 1007.52C2027.4 1009.97 2029.78 1012.41 2032.16 1014.85Z" fill="url(#paint26_linear)"/>
<path d="M2007.93 990.429L2420.49 577.88C2418.03 575.477 2415.57 573.109 2413.11 570.781L2000.63 983.261C2003.08 985.647 2005.51 988.036 2007.93 990.429Z" fill="url(#paint27_linear)"/>
<path d="M1983.21 966.518L2395.23 554.499C2392.62 552.229 2390.02 550.024 2387.41 547.836L1975.75 959.501C1978.25 961.835 1980.73 964.177 1983.21 966.518Z" fill="url(#paint28_linear)"/>
<path d="M1957.95 943.137L2368.45 532.64C2365.69 530.531 2362.93 528.466 2360.17 526.438L1950.33 936.276C1952.88 938.56 1955.42 940.847 1957.95 943.137Z" fill="url(#paint29_linear)"/>
<path d="M1932.17 920.271L2340.03 512.419C2337.1 510.487 2334.16 508.586 2331.22 506.743L1924.39 913.574C1927 915.803 1929.6 918.036 1932.17 920.271Z" fill="url(#paint30_linear)"/>
<path d="M1905.85 897.958L2309.74 494.069C2306.61 492.339 2303.47 490.639 2300.33 488.997L1897.91 891.415C1900.57 893.589 1903.21 895.774 1905.85 897.958Z" fill="url(#paint31_linear)"/>
<path d="M1879 876.171L2277.33 477.842C2273.97 476.334 2270.61 474.866 2267.24 473.449L1870.89 869.798C1873.6 871.921 1876.31 874.041 1879 876.171Z" fill="url(#paint32_linear)"/>
<path d="M1851.58 854.947L2242.55 463.978C2238.95 462.715 2235.33 461.503 2231.71 460.339L1843.32 848.728C1846.09 850.793 1848.84 852.868 1851.58 854.947Z" fill="url(#paint33_linear)"/>
<path d="M1823.61 834.276L2205.2 452.69C2201.33 451.7 2197.44 450.754 2193.55 449.863L1815.18 828.231C1818 830.238 1820.81 832.255 1823.61 834.276Z" fill="url(#paint34_linear)"/>
<path d="M1795.08 814.165L2165.03 444.221C2160.87 443.522 2156.69 442.87 2152.5 442.266L1786.47 808.297C1789.35 810.25 1792.23 812.202 1795.08 814.165Z" fill="url(#paint35_linear)"/>
<path d="M1765.97 794.64L2121.93 438.675C2117.48 438.272 2113 437.927 2108.51 437.62L1757.19 788.937C1760.13 790.828 1763.05 792.732 1765.97 794.64Z" fill="url(#paint36_linear)"/>
<path d="M1736.27 775.703L2075.83 436.139C2071.09 436.029 2066.34 435.954 2061.56 435.927L1727.32 770.17C1730.32 772.007 1733.29 773.853 1736.27 775.703Z" fill="url(#paint37_linear)"/>
<path d="M1705.97 757.353L2026.89 436.442C2021.89 436.606 2016.87 436.797 2011.82 437.033L1696.84 752.015C1699.89 753.786 1702.94 755.565 1705.97 757.353Z" fill="url(#paint38_linear)"/>
<path d="M1675.08 739.604L1975.4 439.286C1970.18 439.678 1964.94 440.095 1959.66 440.549L1665.75 734.457C1668.87 736.17 1671.99 737.877 1675.08 739.604Z" fill="url(#paint39_linear)"/>
<path d="M1643.55 722.5L1921.85 444.197C1916.47 444.767 1911.05 445.358 1905.6 445.972L1634.05 717.52C1637.23 719.168 1640.39 720.834 1643.55 722.5Z" fill="url(#paint40_linear)"/>
<path d="M1611.39 706.02L1866.81 450.601C1861.31 451.287 1855.79 451.986 1850.23 452.703L1601.7 701.231C1604.94 702.815 1608.17 704.416 1611.39 706.02Z" fill="url(#paint41_linear)"/>
<path d="M1578.59 690.182L1810.93 457.837C1805.38 458.561 1799.83 459.288 1794.32 459.974L1568.69 685.595C1572 687.114 1575.3 688.643 1578.59 690.182Z" fill="url(#paint42_linear)"/>
<path d="M1545.13 674.996L1755.7 464.425C1750.3 465.008 1744.9 465.575 1739.53 466.121L1535.03 670.62C1538.4 672.071 1541.78 673.525 1545.13 674.996Z" fill="url(#paint43_linear)"/>
<path d="M1511 660.493L1701.84 469.644C1696.57 470.091 1691.34 470.5 1686.1 470.91L1500.69 656.315C1504.13 657.701 1507.58 659.09 1511 660.493Z" fill="url(#paint44_linear)"/>
<path d="M1476.16 646.693L1649.35 473.501C1644.2 473.822 1639.07 474.132 1633.95 474.412L1465.66 642.706C1469.17 644.02 1472.66 645.359 1476.16 646.693Z" fill="url(#paint45_linear)"/>
<path d="M1440.61 633.596L1598.12 476.085C1593.1 476.279 1588.09 476.47 1583.1 476.627L1429.91 629.821C1433.49 631.067 1437.05 632.33 1440.61 633.596Z" fill="url(#paint46_linear)"/>
<path d="M1404.35 621.216L1548.11 477.46C1543.21 477.535 1538.33 477.587 1533.46 477.628L1393.42 617.673C1397.07 618.844 1400.72 620.025 1404.35 621.216Z" fill="url(#paint47_linear)"/>
<path d="M1367.35 609.577L1499.27 477.658C1494.49 477.621 1489.73 477.553 1484.97 477.481L1356.18 606.269C1359.91 607.365 1363.64 608.461 1367.35 609.577Z" fill="url(#paint48_linear)"/>
<path d="M1329.59 598.698L1451.59 476.696C1446.92 476.546 1442.23 476.406 1437.58 476.221L1318.18 595.63C1321.99 596.647 1325.81 597.657 1329.59 598.698Z" fill="url(#paint49_linear)"/>
<path d="M1291.02 588.626L1405 474.648C1400.43 474.392 1395.87 474.126 1391.33 473.839L1279.39 585.779C1283.28 586.718 1287.16 587.663 1291.02 588.626Z" fill="url(#paint50_linear)"/>
<path d="M1251.65 579.355L1359.45 471.555C1354.98 471.197 1350.54 470.808 1346.11 470.419L1239.79 576.734C1243.77 577.59 1247.7 578.478 1251.65 579.355Z" fill="url(#paint51_linear)"/>
<path d="M1211.45 570.914L1314.94 467.428C1310.57 466.968 1306.23 466.486 1301.89 465.998L1199.33 568.555C1203.39 569.32 1207.42 570.115 1211.45 570.914Z" fill="url(#paint52_linear)"/>
<path d="M1170.41 563.319L1271.44 462.285C1267.17 461.728 1262.9 461.175 1258.66 460.588L1158.02 561.227C1162.16 561.909 1166.29 562.609 1170.41 563.319Z" fill="url(#paint53_linear)"/>
<path d="M1128.49 556.598L1228.9 456.188C1224.72 455.537 1220.56 454.874 1216.41 454.192L1115.82 554.786C1120.05 555.383 1124.28 555.977 1128.49 556.598Z" fill="url(#paint54_linear)"/>
<path d="M1085.66 550.789L1187.29 449.164C1183.2 448.42 1179.15 447.648 1175.09 446.877L1072.71 549.26C1077.03 549.765 1081.36 550.26 1085.66 550.789Z" fill="url(#paint55_linear)"/>
<path d="M1041.87 545.938L1146.6 441.207C1142.61 440.371 1138.63 439.525 1134.66 438.661L1028.65 544.676C1033.07 545.082 1037.47 545.505 1041.87 545.938Z" fill="url(#paint56_linear)"/>
<path d="M997.112 542.058L1106.82 432.346C1102.92 431.425 1099.01 430.503 1095.13 429.554L983.619 541.068C988.135 541.375 992.62 541.72 997.112 542.058Z" fill="url(#paint57_linear)"/>
<path d="M951.356 539.173L1067.9 422.625C1064.08 421.615 1060.28 420.594 1056.49 419.563L937.542 538.507C942.164 538.709 946.761 538.938 951.356 539.173Z" fill="url(#paint58_linear)"/>
<path d="M904.57 537.32L1029.84 412.054C1026.1 410.962 1022.39 409.842 1018.68 408.726L890.425 536.985C895.152 537.081 899.869 537.187 904.57 537.32Z" fill="url(#paint59_linear)"/>
<path d="M856.715 536.535L992.634 400.619C988.978 399.445 985.329 398.264 981.704 397.066L842.225 536.545C847.062 536.531 851.906 536.514 856.715 536.535Z" fill="url(#paint60_linear)"/>
<path d="M807.709 536.897L956.244 388.362C952.67 387.106 949.106 385.843 945.563 384.563L792.902 537.224C797.852 537.101 802.787 536.989 807.709 536.897Z" fill="url(#paint61_linear)"/>
<path d="M757.544 538.426L920.66 375.31C917.165 373.972 913.697 372.616 910.232 371.258L742.403 539.088C747.471 538.839 752.506 538.634 757.544 538.426Z" fill="url(#paint62_linear)"/>
<path d="M706.177 541.153L885.885 361.445C882.472 360.028 879.069 358.605 875.683 357.168L690.646 542.204C695.838 541.832 701.013 541.487 706.177 541.153Z" fill="url(#paint63_linear)"/>
<path d="M650.038 545.423C651.219 545.317 652.383 545.232 653.56 545.129L851.906 346.784C848.567 345.289 845.239 343.791 841.932 342.275L637.74 546.467C641.842 546.119 645.908 545.788 650.038 545.423Z" fill="url(#paint64_linear)"/>
<path d="M600.596 549.454L818.694 331.356C815.431 329.783 812.198 328.192 808.969 326.602L585 550.567C590.185 550.205 595.36 549.847 600.596 549.454Z" fill="url(#paint65_linear)"/>
<path d="M548.45 552.957L786.267 315.14C783.086 313.491 779.905 311.839 776.751 310.173L533.114 553.813C538.217 553.533 543.303 553.264 548.45 552.957Z" fill="url(#paint66_linear)"/>
<path d="M497.189 555.581L754.615 298.155C751.506 296.428 748.413 294.694 745.338 292.949L482.095 556.192C487.106 556.001 492.131 555.8 497.189 555.581Z" fill="url(#paint67_linear)"/>
<path d="M446.798 557.332L723.714 280.415C720.68 278.613 717.672 276.797 714.672 274.975L431.95 557.701C436.861 557.598 441.831 557.465 446.798 557.332Z" fill="url(#paint68_linear)"/>
<path d="M397.281 558.209L693.599 261.891C690.643 260.014 687.697 258.13 684.775 256.236L382.699 558.308C387.526 558.291 392.4 558.254 397.281 558.209Z" fill="url(#paint69_linear)"/>
<path d="M348.648 558.203L664.227 242.623C661.346 240.667 658.496 238.694 655.646 236.725L334.35 558.022C339.091 558.093 343.852 558.158 348.648 558.203Z" fill="url(#paint70_linear)"/>
<path d="M300.902 557.305L635.644 222.56C632.842 220.529 630.046 218.491 627.278 216.446L286.884 556.841C291.543 557.005 296.192 557.172 300.902 557.305Z" fill="url(#paint71_linear)"/>
<path d="M254.101 555.468L607.814 201.755C605.084 199.646 602.384 197.523 599.691 195.4L240.325 554.762C244.878 555.014 249.493 555.24 254.101 555.468Z" fill="url(#paint72_linear)"/>
<path d="M208.202 552.724L580.788 180.142C578.136 177.954 575.504 175.76 572.889 173.558L194.723 551.724C199.191 552.069 203.68 552.407 208.202 552.724Z" fill="url(#paint73_linear)"/>
<path d="M163.239 549.051L554.536 157.754C551.966 155.488 549.399 153.221 546.866 150.941L150.033 547.775C154.405 548.215 158.808 548.638 163.239 549.051Z" fill="url(#paint74_linear)"/>
<path d="M119.234 544.416L529.086 134.564C526.594 132.212 524.13 129.854 521.676 127.492L106.315 542.853C110.592 543.385 114.899 543.908 119.234 544.416Z" fill="url(#paint75_linear)"/>
<path d="M76.1783 538.832L504.473 110.534C502.063 108.101 499.673 105.663 497.305 103.219L63.5421 536.982C67.72 537.613 71.9424 538.224 76.1783 538.832Z" fill="url(#paint76_linear)"/>
<path d="M34.1129 532.258L480.699 85.6681C478.375 83.1491 476.067 80.6266 473.787 78.1007L21.7875 530.101C25.8665 530.831 29.9691 531.551 34.1129 532.258Z" fill="url(#paint77_linear)"/>
<path d="M0.00350952 517.727L457.799 59.9316C455.563 57.3239 453.341 54.7127 451.15 52.0981L0.00350952 503.245V517.727Z" fill="url(#paint78_linear)"/>
<path d="M0.00289917 469.087L435.803 33.2838C433.66 30.5804 431.533 27.8772 429.434 25.1738L0.00289917 454.605V469.087Z" fill="url(#paint79_linear)"/>
<path d="M0.00363159 420.447L414.771 5.6803C412.723 2.87796 410.695 0.075592 408.698 -2.72678L0.00363159 405.965V420.447Z" fill="url(#paint80_linear)"/>
<path d="M0.00338745 371.808L394.748 -22.937C392.802 -25.8452 390.884 -28.7534 388.993 -31.6615L0.00338745 357.325V371.808Z" fill="url(#paint81_linear)"/>
<path d="M0.00366211 323.167L375.808 -52.6367C373.975 -55.6609 372.169 -58.6817 370.391 -61.7025L0.00366211 308.685V323.167Z" fill="url(#paint82_linear)"/>
<path d="M0.00317383 274.528L358.034 -83.5033C356.321 -86.6538 354.641 -89.7974 352.993 -92.9411L0.00317383 260.045V274.528Z" fill="url(#paint83_linear)"/>
<path d="M0.00387573 225.887L341.586 -115.695C340.009 -118.985 338.466 -122.269 336.957 -125.549L0.00387573 211.405V225.887Z" fill="url(#paint84_linear)"/>
<path d="M0.00366211 177.248L326.591 -149.34C325.167 -152.794 323.789 -156.238 322.447 -159.675L0.00366211 162.765V177.248Z" fill="url(#paint85_linear)"/>
<path d="M0.00357056 128.608L313.303 -184.691C312.064 -188.34 310.873 -191.972 309.726 -195.597L0.00357056 114.125V128.608Z" fill="url(#paint86_linear)"/>
<path d="M0.00335693 79.9678L302.073 -222.102C301.062 -225.982 300.086 -229.853 299.185 -233.697L0.00335693 65.4851V79.9678Z" fill="url(#paint87_linear)"/>
<path d="M0.00366211 31.328L293.458 -262.129C292.748 -266.335 292.089 -270.519 291.515 -274.667L0.00366211 16.8453V31.328Z" fill="url(#paint88_linear)"/>
</g>
</g>
<defs>
<linearGradient id="paint0_linear" x1="3840" y1="1399.92" x2="3840" y2="2799.83" gradientUnits="userSpaceOnUse">
<stop stop-color="#C4C4C4"/>
<stop offset="1" stop-color="#C4C4C4" stop-opacity="0"/>
</linearGradient>
<linearGradient id="paint1_linear" x1="1451.36" y1="-373.465" x2="1381.86" y2="622.759" gradientUnits="userSpaceOnUse">
<stop stop-color="white" stop-opacity="0.5"/>
<stop offset="1" stop-color="white" stop-opacity="0"/>
</linearGradient>
<linearGradient id="paint2_linear" x1="1184.05" y1="471.304" x2="1137.98" y2="1290.46" gradientUnits="userSpaceOnUse">
<stop stop-color="white" stop-opacity="0.5"/>
<stop offset="1" stop-color="white" stop-opacity="0"/>
</linearGradient>
<linearGradient id="paint3_linear" x1="800.911" y1="836.525" x2="775.822" y2="1333.82" gradientUnits="userSpaceOnUse">
<stop stop-color="white" stop-opacity="0.5"/>
<stop offset="1" stop-color="white" stop-opacity="0"/>
</linearGradient>
<linearGradient id="paint4_linear" x1="1310.61" y1="-362.1" x2="1268.07" y2="466.259" gradientUnits="userSpaceOnUse">
<stop stop-color="white" stop-opacity="0.5"/>
<stop offset="1" stop-color="white" stop-opacity="0"/>
</linearGradient>
<linearGradient id="paint5_linear" x1="1852.83" y1="-336.514" x2="1831.09" y2="109.048" gradientUnits="userSpaceOnUse">
<stop stop-color="white" stop-opacity="0.5"/>
<stop offset="1" stop-color="white" stop-opacity="0"/>
</linearGradient>
<linearGradient id="paint6_linear" x1="1310.61" y1="711.808" x2="1287.72" y2="1319.87" gradientUnits="userSpaceOnUse">
<stop stop-color="white" stop-opacity="0.5"/>
<stop offset="1" stop-color="white" stop-opacity="0"/>
</linearGradient>
<linearGradient id="paint7_linear" x1="2558.42" y1="1396.48" x2="2557.98" y2="1399.45" gradientUnits="userSpaceOnUse">
<stop stop-color="#FF424E"/>
<stop offset="1" stop-color="#FF424E" stop-opacity="0"/>
</linearGradient>
<linearGradient id="paint8_linear" x1="2534.68" y1="1344.79" x2="2527.58" y2="1392.51" gradientUnits="userSpaceOnUse">
<stop stop-color="#FF424E"/>
<stop offset="1" stop-color="#FF424E" stop-opacity="0"/>
</linearGradient>
<linearGradient id="paint9_linear" x1="2510.95" y1="1293.1" x2="2497.18" y2="1385.57" gradientUnits="userSpaceOnUse">
<stop stop-color="#FF424E"/>
<stop offset="1" stop-color="#FF424E" stop-opacity="0"/>
</linearGradient>
<linearGradient id="paint10_linear" x1="2487.21" y1="1241.42" x2="2466.78" y2="1378.63" gradientUnits="userSpaceOnUse">
<stop stop-color="#FF424E"/>
<stop offset="1" stop-color="#FF424E" stop-opacity="0"/>
</linearGradient>
<linearGradient id="paint11_linear" x1="2463.47" y1="1189.73" x2="2436.38" y2="1371.69" gradientUnits="userSpaceOnUse">
<stop stop-color="#FF424E"/>
<stop offset="1" stop-color="#FF424E" stop-opacity="0"/>
</linearGradient>
<linearGradient id="paint12_linear" x1="2439.73" y1="1138.04" x2="2405.98" y2="1364.75" gradientUnits="userSpaceOnUse">
<stop stop-color="#FF424E"/>
<stop offset="1" stop-color="#FF424E" stop-opacity="0"/>
</linearGradient>
<linearGradient id="paint13_linear" x1="2431.07" y1="1087.71" x2="2392.36" y2="1338.91" gradientUnits="userSpaceOnUse">
<stop stop-color="#FF424E"/>
<stop offset="1" stop-color="#FF424E" stop-opacity="0"/>
</linearGradient>
<linearGradient id="paint14_linear" x1="2422.39" y1="1037.96" x2="2381.29" y2="1305.39" gradientUnits="userSpaceOnUse">
<stop stop-color="#FF424E"/>
<stop offset="1" stop-color="#FF424E" stop-opacity="0"/>
</linearGradient>
<linearGradient id="paint15_linear" x1="2413.45" y1="988.186" x2="2369.89" y2="1272.32" gradientUnits="userSpaceOnUse">
<stop stop-color="#FF424E"/>
<stop offset="1" stop-color="#FF424E" stop-opacity="0"/>
</linearGradient>
<linearGradient id="paint16_linear" x1="2404.26" y1="938.376" x2="2358.16" y2="1239.7" gradientUnits="userSpaceOnUse">
<stop stop-color="#FF424E"/>
<stop offset="1" stop-color="#FF424E" stop-opacity="0"/>
</linearGradient>
<linearGradient id="paint17_linear" x1="2394.83" y1="888.534" x2="2346.12" y2="1207.51" gradientUnits="userSpaceOnUse">
<stop stop-color="#FF424E"/>
<stop offset="1" stop-color="#FF424E" stop-opacity="0"/>
</linearGradient>
<linearGradient id="paint18_linear" x1="2385.15" y1="838.66" x2="2333.77" y2="1175.76" gradientUnits="userSpaceOnUse">
<stop stop-color="#FF424E"/>
<stop offset="1" stop-color="#FF424E" stop-opacity="0"/>
</linearGradient>
<linearGradient id="paint19_linear" x1="2375.22" y1="788.755" x2="2321.1" y2="1144.43" gradientUnits="userSpaceOnUse">
<stop stop-color="#FF424E"/>
<stop offset="1" stop-color="#FF424E" stop-opacity="0"/>
</linearGradient>
<linearGradient id="paint20_linear" x1="2365.05" y1="738.818" x2="2308.11" y2="1113.54" gradientUnits="userSpaceOnUse">
<stop stop-color="#FF424E"/>
<stop offset="1" stop-color="#FF424E" stop-opacity="0"/>
</linearGradient>
<linearGradient id="paint21_linear" x1="2349.18" y1="706.232" x2="2292.36" y2="1085.64" gradientUnits="userSpaceOnUse">
<stop stop-color="#FF424E"/>
<stop offset="1" stop-color="#FF424E" stop-opacity="0"/>
</linearGradient>
<linearGradient id="paint22_linear" x1="2328.63" y1="676.984" x2="2271.57" y2="1058.4" gradientUnits="userSpaceOnUse">
<stop stop-color="#FF424E"/>
<stop offset="1" stop-color="#FF424E" stop-opacity="0"/>
</linearGradient>
<linearGradient id="paint23_linear" x1="2307.47" y1="648.514" x2="2250.19" y2="1031.69" gradientUnits="userSpaceOnUse">
<stop stop-color="#FF424E"/>
<stop offset="1" stop-color="#FF424E" stop-opacity="0"/>
</linearGradient>
<linearGradient id="paint24_linear" x1="2285.63" y1="620.912" x2="2228.2" y2="1005.53" gradientUnits="userSpaceOnUse">
<stop stop-color="#FF424E"/>
<stop offset="1" stop-color="#FF424E" stop-opacity="0"/>
</linearGradient>
<linearGradient id="paint25_linear" x1="2263.08" y1="594.283" x2="2205.56" y2="979.945" gradientUnits="userSpaceOnUse">
<stop stop-color="#FF424E"/>
<stop offset="1" stop-color="#FF424E" stop-opacity="0"/>
</linearGradient>
<linearGradient id="paint26_linear" x1="2239.75" y1="568.74" x2="2182.21" y2="954.941" gradientUnits="userSpaceOnUse">
<stop stop-color="#FF424E"/>
<stop offset="1" stop-color="#FF424E" stop-opacity="0"/>
</linearGradient>
<linearGradient id="paint27_linear" x1="2215.58" y1="544.481" x2="2158.13" y2="930.562" gradientUnits="userSpaceOnUse">
<stop stop-color="#FF424E"/>
<stop offset="1" stop-color="#FF424E" stop-opacity="0"/>
</linearGradient>
<linearGradient id="paint28_linear" x1="2190.5" y1="521.597" x2="2133.26" y2="906.813" gradientUnits="userSpaceOnUse">
<stop stop-color="#FF424E"/>
<stop offset="1" stop-color="#FF424E" stop-opacity="0"/>
</linearGradient>
<linearGradient id="paint29_linear" x1="2164.39" y1="500.323" x2="2107.5" y2="883.739" gradientUnits="userSpaceOnUse">
<stop stop-color="#FF424E"/>
<stop offset="1" stop-color="#FF424E" stop-opacity="0"/>
</linearGradient>
<linearGradient id="paint30_linear" x1="2137.18" y1="480.827" x2="2080.82" y2="861.353" gradientUnits="userSpaceOnUse">
<stop stop-color="#FF424E"/>
<stop offset="1" stop-color="#FF424E" stop-opacity="0"/>
</linearGradient>
<linearGradient id="paint31_linear" x1="2108.75" y1="463.367" x2="2053.11" y2="839.721" gradientUnits="userSpaceOnUse">
<stop stop-color="#FF424E"/>
<stop offset="1" stop-color="#FF424E" stop-opacity="0"/>
</linearGradient>
<linearGradient id="paint32_linear" x1="2078.97" y1="448.21" x2="2024.29" y2="818.857" gradientUnits="userSpaceOnUse">
<stop stop-color="#FF424E"/>
<stop offset="1" stop-color="#FF424E" stop-opacity="0"/>
</linearGradient>
<linearGradient id="paint33_linear" x1="2047.71" y1="435.608" x2="1994.26" y2="798.826" gradientUnits="userSpaceOnUse">
<stop stop-color="#FF424E"/>
<stop offset="1" stop-color="#FF424E" stop-opacity="0"/>
</linearGradient>
<linearGradient id="paint34_linear" x1="2014.85" y1="425.772" x2="1962.93" y2="779.647" gradientUnits="userSpaceOnUse">
<stop stop-color="#FF424E"/>
<stop offset="1" stop-color="#FF424E" stop-opacity="0"/>
</linearGradient>
<linearGradient id="paint35_linear" x1="1980.27" y1="418.958" x2="1930.2" y2="761.361" gradientUnits="userSpaceOnUse">
<stop stop-color="#FF424E"/>
<stop offset="1" stop-color="#FF424E" stop-opacity="0"/>
</linearGradient>
<linearGradient id="paint36_linear" x1="1943.92" y1="415.245" x2="1896.02" y2="743.999" gradientUnits="userSpaceOnUse">
<stop stop-color="#FF424E"/>
<stop offset="1" stop-color="#FF424E" stop-opacity="0"/>
</linearGradient>
<linearGradient id="paint37_linear" x1="1905.74" y1="414.633" x2="1860.32" y2="727.56" gradientUnits="userSpaceOnUse">
<stop stop-color="#FF424E"/>
<stop offset="1" stop-color="#FF424E" stop-opacity="0"/>
</linearGradient>
<linearGradient id="paint38_linear" x1="1865.81" y1="416.33" x2="1823.02" y2="711.916" gradientUnits="userSpaceOnUse">
<stop stop-color="#FF424E"/>
<stop offset="1" stop-color="#FF424E" stop-opacity="0"/>
</linearGradient>
<linearGradient id="paint39_linear" x1="1824.28" y1="420.464" x2="1784.33" y2="697.111" gradientUnits="userSpaceOnUse">
<stop stop-color="#FF424E"/>
<stop offset="1" stop-color="#FF424E" stop-opacity="0"/>
</linearGradient>
<linearGradient id="paint40_linear" x1="1781.39" y1="426.756" x2="1744.48" y2="683.152" gradientUnits="userSpaceOnUse">
<stop stop-color="#FF424E"/>
<stop offset="1" stop-color="#FF424E" stop-opacity="0"/>
</linearGradient>
<linearGradient id="paint41_linear" x1="1737.42" y1="434.593" x2="1703.67" y2="669.943" gradientUnits="userSpaceOnUse">
<stop stop-color="#FF424E"/>
<stop offset="1" stop-color="#FF424E" stop-opacity="0"/>
</linearGradient>
<linearGradient id="paint42_linear" x1="1692.71" y1="443.276" x2="1662.13" y2="657.403" gradientUnits="userSpaceOnUse">
<stop stop-color="#FF424E"/>
<stop offset="1" stop-color="#FF424E" stop-opacity="0"/>
</linearGradient>
<linearGradient id="paint43_linear" x1="1648.01" y1="451.228" x2="1620.43" y2="645.329" gradientUnits="userSpaceOnUse">
<stop stop-color="#FF424E"/>
<stop offset="1" stop-color="#FF424E" stop-opacity="0"/>
</linearGradient>
<linearGradient id="paint44_linear" x1="1603.67" y1="457.683" x2="1578.82" y2="633.644" gradientUnits="userSpaceOnUse">
<stop stop-color="#FF424E"/>
<stop offset="1" stop-color="#FF424E" stop-opacity="0"/>
</linearGradient>
<linearGradient id="paint45_linear" x1="1559.7" y1="462.647" x2="1537.28" y2="622.366" gradientUnits="userSpaceOnUse">
<stop stop-color="#FF424E"/>
<stop offset="1" stop-color="#FF424E" stop-opacity="0"/>
</linearGradient>
<linearGradient id="paint46_linear" x1="1516.03" y1="466.213" x2="1495.77" y2="611.511" gradientUnits="userSpaceOnUse">
<stop stop-color="#FF424E"/>
<stop offset="1" stop-color="#FF424E" stop-opacity="0"/>
</linearGradient>
<linearGradient id="paint47_linear" x1="1472.61" y1="468.451" x2="1454.26" y2="601.097" gradientUnits="userSpaceOnUse">
<stop stop-color="#FF424E"/>
<stop offset="1" stop-color="#FF424E" stop-opacity="0"/>
</linearGradient>
<linearGradient id="paint48_linear" x1="1429.44" y1="469.202" x2="1412.68" y2="591.12" gradientUnits="userSpaceOnUse">
<stop stop-color="#FF424E"/>
<stop offset="1" stop-color="#FF424E" stop-opacity="0"/>
</linearGradient>
<linearGradient id="paint49_linear" x1="1386.48" y1="468.545" x2="1371.03" y2="581.609" gradientUnits="userSpaceOnUse">
<stop stop-color="#FF424E"/>
<stop offset="1" stop-color="#FF424E" stop-opacity="0"/>
</linearGradient>
<linearGradient id="paint50_linear" x1="1343.7" y1="466.645" x2="1329.28" y2="572.627" gradientUnits="userSpaceOnUse">
<stop stop-color="#FF424E"/>
<stop offset="1" stop-color="#FF424E" stop-opacity="0"/>
</linearGradient>
<linearGradient id="paint51_linear" x1="1301.05" y1="463.591" x2="1287.42" y2="564.185" gradientUnits="userSpaceOnUse">
<stop stop-color="#FF424E"/>
<stop offset="1" stop-color="#FF424E" stop-opacity="0"/>
</linearGradient>
<linearGradient id="paint52_linear" x1="1258.52" y1="459.423" x2="1245.43" y2="556.315" gradientUnits="userSpaceOnUse">
<stop stop-color="#FF424E"/>
<stop offset="1" stop-color="#FF424E" stop-opacity="0"/>
</linearGradient>
<linearGradient id="paint53_linear" x1="1216.09" y1="454.15" x2="1203.3" y2="549.031" gradientUnits="userSpaceOnUse">
<stop stop-color="#FF424E"/>
<stop offset="1" stop-color="#FF424E" stop-opacity="0"/>
</linearGradient>
<linearGradient id="paint54_linear" x1="1173.71" y1="447.774" x2="1160.96" y2="542.356" gradientUnits="userSpaceOnUse">
<stop stop-color="#FF424E"/>
<stop offset="1" stop-color="#FF424E" stop-opacity="0"/>
</linearGradient>
<linearGradient id="paint55_linear" x1="1131.37" y1="440.365" x2="1118.41" y2="536.332" gradientUnits="userSpaceOnUse">
<stop stop-color="#FF424E"/>
<stop offset="1" stop-color="#FF424E" stop-opacity="0"/>
</linearGradient>
<linearGradient id="paint56_linear" x1="1089.03" y1="431.938" x2="1075.62" y2="531.003" gradientUnits="userSpaceOnUse">
<stop stop-color="#FF424E"/>
<stop offset="1" stop-color="#FF424E" stop-opacity="0"/>
</linearGradient>
<linearGradient id="paint57_linear" x1="1046.69" y1="422.503" x2="1032.57" y2="526.38" gradientUnits="userSpaceOnUse">
<stop stop-color="#FF424E"/>
<stop offset="1" stop-color="#FF424E" stop-opacity="0"/>
</linearGradient>
<linearGradient id="paint58_linear" x1="1004.28" y1="412.067" x2="989.199" y2="522.486" gradientUnits="userSpaceOnUse">
<stop stop-color="#FF424E"/>
<stop offset="1" stop-color="#FF424E" stop-opacity="0"/>
</linearGradient>
<linearGradient id="paint59_linear" x1="961.797" y1="400.667" x2="945.498" y2="519.356" gradientUnits="userSpaceOnUse">
<stop stop-color="#FF424E"/>
<stop offset="1" stop-color="#FF424E" stop-opacity="0"/>
</linearGradient>
<linearGradient id="paint60_linear" x1="919.228" y1="388.325" x2="901.459" y2="517.035" gradientUnits="userSpaceOnUse">
<stop stop-color="#FF424E"/>
<stop offset="1" stop-color="#FF424E" stop-opacity="0"/>
</linearGradient>
<linearGradient id="paint61_linear" x1="876.526" y1="374.996" x2="856.931" y2="515.829" gradientUnits="userSpaceOnUse">
<stop stop-color="#FF424E"/>
<stop offset="1" stop-color="#FF424E" stop-opacity="0"/>
</linearGradient>
<linearGradient id="paint62_linear" x1="833.663" y1="360.74" x2="811.968" y2="515.523" gradientUnits="userSpaceOnUse">
<stop stop-color="#FF424E"/>
<stop offset="1" stop-color="#FF424E" stop-opacity="0"/>
</linearGradient>
<linearGradient id="paint63_linear" x1="790.601" y1="345.571" x2="766.529" y2="516.18" gradientUnits="userSpaceOnUse">
<stop stop-color="#FF424E"/>
<stop offset="1" stop-color="#FF424E" stop-opacity="0"/>
</linearGradient>
<linearGradient id="paint64_linear" x1="747.384" y1="329.478" x2="720.666" y2="517.705" gradientUnits="userSpaceOnUse">
<stop stop-color="#FF424E"/>
<stop offset="1" stop-color="#FF424E" stop-opacity="0"/>
</linearGradient>
<linearGradient id="paint65_linear" x1="704.642" y1="312.565" x2="675.191" y2="518.977" gradientUnits="userSpaceOnUse">
<stop stop-color="#FF424E"/>
<stop offset="1" stop-color="#FF424E" stop-opacity="0"/>
</linearGradient>
<linearGradient id="paint66_linear" x1="662.718" y1="294.904" x2="630.551" y2="519.41" gradientUnits="userSpaceOnUse">
<stop stop-color="#FF424E"/>
<stop offset="1" stop-color="#FF424E" stop-opacity="0"/>
</linearGradient>
<linearGradient id="paint67_linear" x1="621.614" y1="276.452" x2="586.736" y2="518.985" gradientUnits="userSpaceOnUse">
<stop stop-color="#FF424E"/>
<stop offset="1" stop-color="#FF424E" stop-opacity="0"/>
</linearGradient>
<linearGradient id="paint68_linear" x1="581.321" y1="257.256" x2="543.747" y2="517.706" gradientUnits="userSpaceOnUse">
<stop stop-color="#FF424E"/>
<stop offset="1" stop-color="#FF424E" stop-opacity="0"/>
</linearGradient>
<linearGradient id="paint69_linear" x1="541.867" y1="237.304" x2="501.62" y2="515.546" gradientUnits="userSpaceOnUse">
<stop stop-color="#FF424E"/>
<stop offset="1" stop-color="#FF424E" stop-opacity="0"/>
</linearGradient>
<linearGradient id="paint70_linear" x1="503.233" y1="216.578" x2="460.277" y2="512.657" gradientUnits="userSpaceOnUse">
<stop stop-color="#FF424E"/>
<stop offset="1" stop-color="#FF424E" stop-opacity="0"/>
</linearGradient>
<linearGradient id="paint71_linear" x1="465.435" y1="195.084" x2="419.762" y2="508.976" gradientUnits="userSpaceOnUse">
<stop stop-color="#FF424E"/>
<stop offset="1" stop-color="#FF424E" stop-opacity="0"/>
</linearGradient>
<linearGradient id="paint72_linear" x1="428.464" y1="172.834" x2="380.102" y2="504.381" gradientUnits="userSpaceOnUse">
<stop stop-color="#FF424E"/>
<stop offset="1" stop-color="#FF424E" stop-opacity="0"/>
</linearGradient>
<linearGradient id="paint73_linear" x1="392.372" y1="149.795" x2="341.329" y2="498.893" gradientUnits="userSpaceOnUse">
<stop stop-color="#FF424E"/>
<stop offset="1" stop-color="#FF424E" stop-opacity="0"/>
</linearGradient>
<linearGradient id="paint74_linear" x1="357.122" y1="125.991" x2="303.42" y2="492.498" gradientUnits="userSpaceOnUse">
<stop stop-color="#FF424E"/>
<stop offset="1" stop-color="#FF424E" stop-opacity="0"/>
</linearGradient>
<linearGradient id="paint75_linear" x1="322.756" y1="101.362" x2="266.409" y2="485.158" gradientUnits="userSpaceOnUse">
<stop stop-color="#FF424E"/>
<stop offset="1" stop-color="#FF424E" stop-opacity="0"/>
</linearGradient>
<linearGradient id="paint76_linear" x1="289.28" y1="75.9191" x2="230.306" y2="476.887" gradientUnits="userSpaceOnUse">
<stop stop-color="#FF424E"/>
<stop offset="1" stop-color="#FF424E" stop-opacity="0"/>
</linearGradient>
<linearGradient id="paint77_linear" x1="256.731" y1="49.6381" x2="195.145" y2="467.646" gradientUnits="userSpaceOnUse">
<stop stop-color="#FF424E"/>
<stop offset="1" stop-color="#FF424E" stop-opacity="0"/>
</linearGradient>
<linearGradient id="paint78_linear" x1="234.376" y1="22.9165" x2="169.559" y2="450.971" gradientUnits="userSpaceOnUse">
<stop stop-color="#FF424E"/>
<stop offset="1" stop-color="#FF424E" stop-opacity="0"/>
</linearGradient>
<linearGradient id="paint79_linear" x1="223.115" y1="-2.64684" x2="161.233" y2="405.417" gradientUnits="userSpaceOnUse">
<stop stop-color="#FF424E"/>
<stop offset="1" stop-color="#FF424E" stop-opacity="0"/>
</linearGradient>
<linearGradient id="paint80_linear" x1="212.347" y1="-29.2476" x2="153.265" y2="359.724" gradientUnits="userSpaceOnUse">
<stop stop-color="#FF424E"/>
<stop offset="1" stop-color="#FF424E" stop-opacity="0"/>
</linearGradient>
<linearGradient id="paint81_linear" x1="202.096" y1="-56.9475" x2="145.669" y2="313.881" gradientUnits="userSpaceOnUse">
<stop stop-color="#FF424E"/>
<stop offset="1" stop-color="#FF424E" stop-opacity="0"/>
</linearGradient>
<linearGradient id="paint82_linear" x1="192.4" y1="-85.8228" x2="138.472" y2="267.88" gradientUnits="userSpaceOnUse">
<stop stop-color="#FF424E"/>
<stop offset="1" stop-color="#FF424E" stop-opacity="0"/>
</linearGradient>
<linearGradient id="paint83_linear" x1="183.3" y1="-115.971" x2="131.703" y2="221.706" gradientUnits="userSpaceOnUse">
<stop stop-color="#FF424E"/>
<stop offset="1" stop-color="#FF424E" stop-opacity="0"/>
</linearGradient>
<linearGradient id="paint84_linear" x1="174.88" y1="-147.574" x2="125.42" y2="175.335" gradientUnits="userSpaceOnUse">
<stop stop-color="#FF424E"/>
<stop offset="1" stop-color="#FF424E" stop-opacity="0"/>
</linearGradient>
<linearGradient id="paint85_linear" x1="167.203" y1="-180.791" x2="119.662" y2="128.744" gradientUnits="userSpaceOnUse">
<stop stop-color="#FF424E"/>
<stop offset="1" stop-color="#FF424E" stop-opacity="0"/>
</linearGradient>
<linearGradient id="paint86_linear" x1="160.4" y1="-215.915" x2="114.52" y2="81.893" gradientUnits="userSpaceOnUse">
<stop stop-color="#FF424E"/>
<stop offset="1" stop-color="#FF424E" stop-opacity="0"/>
</linearGradient>
<linearGradient id="paint87_linear" x1="154.65" y1="-253.354" x2="110.116" y2="34.7254" gradientUnits="userSpaceOnUse">
<stop stop-color="#FF424E"/>
<stop offset="1" stop-color="#FF424E" stop-opacity="0"/>
</linearGradient>
<linearGradient id="paint88_linear" x1="150.24" y1="-293.844" x2="106.621" y2="-12.8631" gradientUnits="userSpaceOnUse">
<stop stop-color="#FF424E"/>
<stop offset="1" stop-color="#FF424E" stop-opacity="0"/>
</linearGradient>
</defs>
</svg>
