<svg width="215" height="60" viewBox="0 0 215 60" fill="none" xmlns="http://www.w3.org/2000/svg">
<path d="M83.672 42C83.432 42 83.228 41.916 83.06 41.748C82.892 41.58 82.808 41.376 82.808 41.136V17.664C82.808 17.4 82.892 17.196 83.06 17.052C83.228 16.884 83.432 16.8 83.672 16.8H87.128C87.392 16.8 87.596 16.884 87.74 17.052C87.908 17.196 87.992 17.4 87.992 17.664V41.136C87.992 41.376 87.908 41.58 87.74 41.748C87.596 41.916 87.392 42 87.128 42H83.672ZM108.685 44.34C108.373 44.34 108.109 44.256 107.893 44.088C107.701 43.944 107.521 43.752 107.353 43.512L106.021 41.712C104.941 42.144 103.669 42.36 102.205 42.36C98.941 42.36 96.385 41.532 94.537 39.876C92.713 38.22 91.753 35.76 91.657 32.496C91.633 31.8 91.621 30.78 91.621 29.436C91.621 28.068 91.633 27.036 91.657 26.34C91.753 23.148 92.737 20.7 94.609 18.996C96.505 17.292 99.037 16.44 102.205 16.44C105.397 16.44 107.929 17.292 109.801 18.996C111.673 20.7 112.657 23.148 112.753 26.34C112.801 27.732 112.825 28.764 112.825 29.436C112.825 30.084 112.801 31.104 112.753 32.496C112.657 35.664 111.793 38.04 110.161 39.624L112.681 43.224C112.753 43.368 112.789 43.488 112.789 43.584V43.656C112.789 43.848 112.717 44.004 112.573 44.124C112.429 44.268 112.261 44.34 112.069 44.34H108.685ZM102.205 38.184C103.813 38.184 105.085 37.704 106.021 36.744C106.981 35.76 107.485 34.284 107.533 32.316C107.581 30.876 107.605 29.904 107.605 29.4C107.605 28.848 107.581 27.876 107.533 26.484C107.485 24.516 106.981 23.052 106.021 22.092C105.061 21.108 103.789 20.616 102.205 20.616C100.621 20.616 99.349 21.108 98.389 22.092C97.453 23.052 96.949 24.516 96.877 26.484C96.853 27.18 96.841 28.152 96.841 29.4C96.841 30.624 96.853 31.596 96.877 32.316C96.949 34.308 97.453 35.784 98.389 36.744C99.325 37.704 100.597 38.184 102.205 38.184ZM133.304 42.36C129.992 42.36 127.424 41.52 125.6 39.84C123.8 38.136 122.84 35.724 122.72 32.604C122.696 31.956 122.684 30.9 122.684 29.436C122.684 27.948 122.696 26.868 122.72 26.196C122.84 23.124 123.812 20.736 125.636 19.032C127.46 17.304 130.016 16.44 133.304 16.44C135.44 16.44 137.3 16.812 138.884 17.556C140.468 18.276 141.692 19.272 142.556 20.544C143.444 21.816 143.912 23.244 143.96 24.828V24.9C143.96 25.092 143.876 25.26 143.708 25.404C143.564 25.524 143.396 25.584 143.204 25.584H139.712C139.424 25.584 139.208 25.524 139.064 25.404C138.92 25.26 138.8 25.02 138.704 24.684C138.344 23.196 137.72 22.152 136.832 21.552C135.944 20.928 134.768 20.616 133.304 20.616C129.872 20.616 128.084 22.536 127.94 26.376C127.916 27.024 127.904 28.02 127.904 29.364C127.904 30.708 127.916 31.728 127.94 32.424C128.084 36.264 129.872 38.184 133.304 38.184C134.744 38.184 135.908 37.884 136.796 37.284C137.708 36.66 138.344 35.604 138.704 34.116C138.8 33.78 138.92 33.552 139.064 33.432C139.208 33.288 139.424 33.216 139.712 33.216H143.204C143.42 33.216 143.6 33.288 143.744 33.432C143.912 33.576 143.984 33.756 143.96 33.972C143.912 35.556 143.444 36.984 142.556 38.256C141.692 39.528 140.468 40.536 138.884 41.28C137.3 42 135.44 42.36 133.304 42.36ZM147.616 42C147.376 42 147.172 41.916 147.004 41.748C146.836 41.58 146.752 41.376 146.752 41.136V17.304C146.752 17.04 146.836 16.836 147.004 16.692C147.172 16.524 147.376 16.44 147.616 16.44H150.64C150.904 16.44 151.108 16.524 151.252 16.692C151.42 16.836 151.504 17.04 151.504 17.304V41.136C151.504 41.376 151.42 41.58 151.252 41.748C151.108 41.916 150.904 42 150.64 42H147.616ZM160.635 42.36C159.411 42.36 158.283 42.12 157.251 41.64C156.243 41.136 155.439 40.464 154.839 39.624C154.263 38.784 153.975 37.86 153.975 36.852C153.975 35.22 154.635 33.9 155.955 32.892C157.275 31.884 159.087 31.2 161.391 30.84L166.323 30.12V29.364C166.323 28.332 166.059 27.552 165.531 27.024C165.003 26.496 164.163 26.232 163.011 26.232C162.219 26.232 161.583 26.376 161.103 26.664C160.623 26.952 160.227 27.252 159.915 27.564C159.627 27.852 159.435 28.044 159.339 28.14C159.243 28.428 159.063 28.572 158.799 28.572H155.991C155.775 28.572 155.583 28.5 155.415 28.356C155.271 28.212 155.199 28.02 155.199 27.78C155.223 27.18 155.511 26.508 156.063 25.764C156.639 24.996 157.515 24.336 158.691 23.784C159.867 23.208 161.319 22.92 163.047 22.92C165.879 22.92 167.943 23.556 169.239 24.828C170.535 26.1 171.183 27.768 171.183 29.832V41.136C171.183 41.376 171.099 41.58 170.931 41.748C170.787 41.916 170.583 42 170.319 42H167.331C167.091 42 166.887 41.916 166.719 41.748C166.551 41.58 166.467 41.376 166.467 41.136V39.732C165.939 40.5 165.195 41.136 164.235 41.64C163.275 42.12 162.075 42.36 160.635 42.36ZM161.859 38.904C163.179 38.904 164.259 38.472 165.099 37.608C165.939 36.744 166.359 35.496 166.359 33.864V33.144L162.759 33.72C159.999 34.152 158.619 35.076 158.619 36.492C158.619 37.26 158.931 37.86 159.555 38.292C160.203 38.7 160.971 38.904 161.859 38.904ZM181.848 42.36C180.024 42.36 178.5 42.084 177.276 41.532C176.052 40.98 175.14 40.344 174.54 39.624C173.964 38.88 173.676 38.244 173.676 37.716C173.676 37.476 173.748 37.284 173.892 37.14C174.06 36.996 174.252 36.924 174.468 36.924H177.42C177.612 36.924 177.78 37.02 177.924 37.212C178.044 37.308 178.308 37.536 178.716 37.896C179.148 38.256 179.628 38.544 180.156 38.76C180.708 38.952 181.308 39.048 181.956 39.048C182.916 39.048 183.696 38.868 184.296 38.508C184.896 38.124 185.196 37.584 185.196 36.888C185.196 36.408 185.052 36.024 184.764 35.736C184.5 35.424 184.008 35.148 183.288 34.908C182.592 34.644 181.536 34.356 180.12 34.044C178.08 33.612 176.568 32.952 175.584 32.064C174.624 31.176 174.144 30 174.144 28.536C174.144 27.576 174.432 26.676 175.008 25.836C175.584 24.972 176.436 24.276 177.564 23.748C178.716 23.196 180.084 22.92 181.668 22.92C183.3 22.92 184.704 23.184 185.88 23.712C187.056 24.216 187.944 24.828 188.544 25.548C189.168 26.268 189.48 26.904 189.48 27.456C189.48 27.672 189.396 27.864 189.228 28.032C189.084 28.176 188.904 28.248 188.688 28.248H185.988C185.724 28.248 185.52 28.152 185.376 27.96C185.208 27.84 184.932 27.624 184.548 27.312C184.188 26.976 183.78 26.712 183.324 26.52C182.868 26.328 182.316 26.232 181.668 26.232C180.78 26.232 180.096 26.424 179.616 26.808C179.136 27.192 178.896 27.696 178.896 28.32C178.896 28.752 179.004 29.112 179.22 29.4C179.46 29.688 179.928 29.964 180.624 30.228C181.32 30.468 182.364 30.72 183.756 30.984C188.076 31.824 190.236 33.708 190.236 36.636C190.236 38.34 189.492 39.72 188.004 40.776C186.54 41.832 184.488 42.36 181.848 42.36ZM193.736 42C193.496 42 193.292 41.916 193.124 41.748C192.956 41.58 192.872 41.376 192.872 41.136V17.304C192.872 17.04 192.956 16.836 193.124 16.692C193.292 16.524 193.496 16.44 193.736 16.44H197.012C197.276 16.44 197.48 16.524 197.624 16.692C197.792 16.836 197.876 17.04 197.876 17.304V25.512C199.316 23.784 201.248 22.92 203.672 22.92C205.88 22.92 207.644 23.652 208.964 25.116C210.284 26.556 210.944 28.524 210.944 31.02V41.136C210.944 41.376 210.86 41.58 210.692 41.748C210.548 41.916 210.344 42 210.08 42H206.804C206.54 42 206.324 41.916 206.156 41.748C205.988 41.58 205.904 41.376 205.904 41.136V31.236C205.904 29.844 205.556 28.764 204.86 27.996C204.188 27.204 203.216 26.808 201.944 26.808C200.72 26.808 199.736 27.204 198.992 27.996C198.248 28.788 197.876 29.868 197.876 31.236V41.136C197.876 41.376 197.792 41.58 197.624 41.748C197.48 41.916 197.276 42 197.012 42H193.736Z" fill="white"/>
<path d="M30 60C46.5685 60 60 46.5685 60 30C60 13.4315 46.5685 0 30 0C13.4315 0 0 13.4315 0 30C0 46.5685 13.4315 60 30 60Z" fill="url(#paint0_linear)"/>
<path d="M45.6123 42.9048C45.6123 43.4403 45.4535 43.9637 45.156 44.409C44.8585 44.8542 44.4357 45.2012 43.9409 45.4062C43.4462 45.6111 42.9018 45.6647 42.3766 45.5602C41.8514 45.4558 41.369 45.1979 40.9903 44.8193C40.6116 44.4406 40.3538 43.9582 40.2493 43.4329C40.1448 42.9077 40.1985 42.3633 40.4034 41.8686C40.6083 41.3739 40.9554 40.951 41.4006 40.6535C41.8459 40.356 42.3693 40.1972 42.9048 40.1972C43.2605 40.1967 43.6128 40.2664 43.9415 40.4023C44.2702 40.5382 44.5689 40.7376 44.8204 40.9891C45.0719 41.2406 45.2714 41.5393 45.4073 41.868C45.5431 42.1968 45.6128 42.5491 45.6123 42.9048ZM30.3895 17.5334C28.5708 17.5282 26.7719 17.9112 25.113 18.6568V25.1242C25.818 24.4179 26.6584 23.8615 27.5838 23.4882C28.5092 23.115 29.5005 22.9326 30.4981 22.9522C32.45 23.0054 34.3052 23.8131 35.674 25.2056C37.0427 26.5981 37.8184 28.4669 37.838 30.4194C37.8307 31.3971 37.6308 32.3637 37.2498 33.2641C36.8689 34.1645 36.3143 34.9811 35.6178 35.6672C34.9213 36.3533 34.0964 36.8955 33.1904 37.2628C32.2843 37.6301 31.3148 37.8154 30.3371 37.808C29.3594 37.8006 28.3928 37.6007 27.4924 37.2198C26.592 36.8388 25.7754 36.2843 25.0893 35.5878C24.4032 34.8912 23.861 34.0664 23.4937 33.1603C23.1264 32.2543 22.9411 31.2847 22.9485 30.3071V20.2409C22.9485 19.5228 22.6633 18.8342 22.1555 18.3264C21.6477 17.8186 20.9591 17.5334 20.241 17.5334C19.5229 17.5334 18.8342 17.8186 18.3265 18.3264C17.8187 18.8342 17.5334 19.5228 17.5334 20.2409V30.2809C17.5334 37.3549 23.3192 43.253 30.3895 43.253C33.8002 43.253 37.0711 41.8981 39.4828 39.4865C41.8945 37.0748 43.2493 33.8038 43.2493 30.3932C43.2493 26.9826 41.8945 23.7116 39.4828 21.2999C37.0711 18.8882 33.8002 17.5334 30.3895 17.5334Z" fill="white"/>
<mask id="mask0" mask-type="alpha" maskUnits="userSpaceOnUse" x="17" y="17" width="29" height="29">
<path d="M45.6123 42.9048C45.6123 43.4403 45.4535 43.9637 45.156 44.409C44.8585 44.8542 44.4357 45.2012 43.9409 45.4062C43.4462 45.6111 42.9018 45.6647 42.3766 45.5602C41.8514 45.4558 41.369 45.1979 40.9903 44.8193C40.6116 44.4406 40.3538 43.9582 40.2493 43.4329C40.1448 42.9077 40.1985 42.3633 40.4034 41.8686C40.6083 41.3739 40.9554 40.951 41.4006 40.6535C41.8459 40.356 42.3693 40.1972 42.9048 40.1972C43.2605 40.1967 43.6128 40.2664 43.9415 40.4023C44.2702 40.5382 44.5689 40.7376 44.8204 40.9891C45.0719 41.2406 45.2714 41.5393 45.4073 41.868C45.5431 42.1968 45.6128 42.5491 45.6123 42.9048ZM30.3895 17.5334C28.5708 17.5282 26.7719 17.9112 25.113 18.6568V25.1242C25.818 24.4179 26.6584 23.8615 27.5838 23.4882C28.5092 23.115 29.5005 22.9326 30.4981 22.9522C32.45 23.0054 34.3052 23.8131 35.674 25.2056C37.0427 26.5981 37.8184 28.4669 37.838 30.4194C37.8307 31.3971 37.6308 32.3637 37.2498 33.2641C36.8689 34.1645 36.3143 34.9811 35.6178 35.6672C34.9213 36.3533 34.0964 36.8955 33.1904 37.2628C32.2843 37.6301 31.3148 37.8154 30.3371 37.808C29.3594 37.8006 28.3928 37.6007 27.4924 37.2198C26.592 36.8388 25.7754 36.2843 25.0893 35.5878C24.4032 34.8912 23.861 34.0664 23.4937 33.1603C23.1264 32.2543 22.9411 31.2847 22.9485 30.3071V20.2409C22.9485 19.5228 22.6633 18.8342 22.1555 18.3264C21.6477 17.8186 20.9591 17.5334 20.241 17.5334C19.5229 17.5334 18.8342 17.8186 18.3265 18.3264C17.8187 18.8342 17.5334 19.5228 17.5334 20.2409V30.2809C17.5334 37.3549 23.3192 43.253 30.3895 43.253C33.8002 43.253 37.0711 41.8981 39.4828 39.4865C41.8945 37.0748 43.2493 33.8038 43.2493 30.3932C43.2493 26.9826 41.8945 23.7116 39.4828 21.2999C37.0711 18.8882 33.8002 17.5334 30.3895 17.5334Z" fill="white"/>
</mask>
<g mask="url(#mask0)">
<path d="M38.19 12.8524H23.3342V29.9476H38.19V12.8524Z" fill="url(#paint1_linear)"/>
</g>
<defs>
<linearGradient id="paint0_linear" x1="8.78542" y1="8.78542" x2="51.2146" y2="51.2146" gradientUnits="userSpaceOnUse">
<stop stop-color="#FF424E"/>
<stop offset="1" stop-color="#1C0498"/>
</linearGradient>
<linearGradient id="paint1_linear" x1="23.3342" y1="21.4019" x2="38.19" y2="21.4019" gradientUnits="userSpaceOnUse">
<stop stop-color="#BE3063"/>
<stop offset="1" stop-color="white"/>
</linearGradient>
</defs>
</svg>
